<svg width="213" height="80" viewBox="0 0 213 80" fill="none" xmlns="http://www.w3.org/2000/svg">
<g clip-path="url(#clip0_1508_24)">
<path fill-rule="evenodd" clip-rule="evenodd" d="M63.6466 55.4032L63.6686 55.3811L63.8935 55.6076C63.9087 55.6212 63.9223 55.6365 63.9375 55.6519L64.1827 55.8988L64.1793 55.9039L64.1979 55.9243L64.1759 55.9448C64.4143 56.3041 64.5243 56.7298 64.5243 57.1726V57.3378L64.4888 57.4996C64.318 58.2625 63.9307 58.9777 63.5553 59.6555C63.5063 59.7492 63.4555 59.8411 63.4014 59.9331L63.3727 59.9859C63.1376 60.3775 62.8468 60.742 62.4528 60.9787L62.4308 60.9923H62.4291C61.9353 61.2801 61.3401 61.338 60.7804 61.338L51.2668 61.3499C49.9833 61.3499 48.9738 60.5461 48.9738 59.2008V59.0526L49.0026 58.9062C49.0939 58.4532 49.3019 58.0445 49.6468 57.7346C49.8616 57.5421 50.1 57.3974 50.352 57.2611L50.379 57.2458L50.3875 57.2407C50.3943 57.1998 50.401 57.159 50.4078 57.1164L50.4129 57.0908L52.3829 47.8064C52.2645 47.6974 52.1546 47.5799 52.0599 47.4487C51.7978 47.0826 51.7031 46.6569 51.7014 46.2124V46.0489L51.7352 45.8888C52.0075 44.6423 53.0762 44.0684 54.2734 44.0667L63.3693 44.0565C64.1708 44.0565 65.0231 44.1774 65.5473 44.862L65.6217 44.959L65.6792 45.0663C65.8804 45.4444 65.9278 45.8667 65.9295 46.289C65.9295 46.8425 65.8804 47.3959 65.7655 47.9375C65.5152 49.1108 64.6815 49.9504 63.4522 49.9504C63.371 49.9504 63.2881 49.947 63.2087 49.9384C63.4353 50.2841 63.5587 50.7133 63.5587 51.1816C63.5587 51.5222 63.5012 51.8475 63.4437 52.1812V52.1846L63.4336 52.2374V52.2408C63.3253 52.75 63.1985 53.2558 62.9956 53.736C62.6388 54.5807 61.8711 55.0592 60.9681 55.0609C60.3948 55.0609 59.8774 54.8293 59.4648 54.4325C59.4513 54.4206 59.4377 54.407 59.4242 54.3934C59.3802 54.3934 59.3363 54.3934 59.294 54.3934H57.5404L57.0855 56.5629C57.0619 56.6872 57.0382 56.8099 57.0162 56.9342C57.3595 56.9563 57.7061 56.9563 58.0494 56.958C58.3656 56.958 58.6852 56.9495 58.9998 56.9103C59.1604 56.8899 59.3261 56.8269 59.4732 56.7588C59.6812 56.6634 59.8757 56.5118 60.0448 56.3586C60.3543 56.0793 60.6553 55.7949 60.9918 55.5497L61.0137 55.5343C61.4449 55.2261 61.9455 55.0439 62.4765 55.0439C62.8975 55.0439 63.3034 55.1631 63.6433 55.3981L63.6466 55.4032ZM61.724 49.1023C61.6191 48.9661 61.5244 48.823 61.4297 48.6749C61.3807 48.5982 61.3333 48.542 61.2488 48.5131C60.7516 48.4092 60.2004 48.416 59.6965 48.4177C59.4445 48.4177 59.0775 48.4058 58.7833 48.4381L58.4975 49.8312H59.6237C59.6897 49.8312 59.8131 49.8312 59.8926 49.8209C59.9789 49.7716 60.0634 49.7068 60.1395 49.6472C60.5656 49.3186 61.056 49.1006 61.5988 49.1006C61.6411 49.1006 61.6817 49.1006 61.7223 49.104L61.724 49.1023ZM130.893 57.6477C130.702 58.3255 130.355 58.9658 130.017 59.5755C129.969 59.664 129.922 59.7526 129.87 59.8411L129.834 59.9058H129.832C129.597 60.2941 129.308 60.6551 128.921 60.8935H128.919L128.899 60.9072C128.402 61.2035 127.805 61.258 127.238 61.258L117.725 61.2682C116.441 61.2682 115.432 60.4644 115.432 59.1191V58.9709L115.461 58.8262C115.552 58.3715 115.76 57.9645 116.105 57.6528C116.32 57.4604 116.56 57.3139 116.812 57.1794L116.839 57.1658L116.847 57.1624C116.854 57.1215 116.861 57.0789 116.869 57.0381L116.874 57.0074L118.843 47.7297C118.724 47.6207 118.614 47.5032 118.52 47.3721C118.256 47.006 118.161 46.5785 118.161 46.1324V45.9706L118.195 45.8122C118.469 44.5656 119.536 43.9917 120.733 43.99L129.829 43.9798C130.629 43.9798 131.481 44.1007 132.005 44.7819L132.08 44.879L132.137 44.988C132.34 45.3677 132.388 45.7884 132.388 46.2107C132.388 46.7641 132.338 47.3176 132.223 47.8591C131.973 49.0325 131.14 49.8703 129.91 49.872C129.829 49.872 129.746 49.8686 129.667 49.8601C129.893 50.2058 130.017 50.635 130.017 51.1033C130.017 51.4456 129.958 51.7759 129.902 52.1114L129.897 52.1438L129.89 52.171C129.778 52.6768 129.657 53.1792 129.455 53.6594C129.099 54.5041 128.331 54.9826 127.426 54.9843C126.853 54.9843 126.335 54.7527 125.925 54.3559C125.911 54.3423 125.897 54.3304 125.884 54.3167C125.84 54.3167 125.796 54.3167 125.754 54.3167H124L123.545 56.488C123.522 56.6123 123.498 56.7349 123.476 56.8592C123.819 56.8814 124.166 56.8814 124.509 56.8831C124.825 56.8831 125.145 56.8746 125.459 56.8354C125.62 56.815 125.784 56.7537 125.931 56.6855C126.139 56.5902 126.334 56.4386 126.503 56.2854C126.812 56.0061 127.115 55.72 127.453 55.4747L127.47 55.4628C127.9 55.1495 128.405 54.9707 128.936 54.9707C129.523 54.9707 129.985 55.1614 130.352 55.5292C130.367 55.5429 130.38 55.5582 130.396 55.5718C130.412 55.5888 130.428 55.6059 130.445 55.6229C130.935 56.1338 131.079 56.9768 130.891 57.6477H130.893ZM128.187 49.024C128.081 48.8877 127.984 48.743 127.891 48.5965C127.845 48.5233 127.798 48.4654 127.717 48.4364C127.215 48.3343 126.667 48.3377 126.158 48.3394C125.911 48.3394 125.539 48.3258 125.245 48.3581L124.959 49.7511H126.085C126.151 49.7511 126.275 49.7511 126.354 49.7409C126.44 49.6915 126.525 49.6268 126.601 49.5672C127.027 49.2385 127.517 49.0206 128.062 49.0206C128.104 49.0206 128.146 49.0206 128.189 49.024H128.187ZM163.703 48.7975L163.634 49.15L163.607 49.1449L163.602 49.1585L163.595 49.184C163.304 49.9878 162.694 50.5583 161.863 50.7133C161.967 50.7933 162.065 50.8785 162.159 50.9687L162.173 50.9824L162.191 51.0011C163.054 51.8696 163.48 52.9697 163.482 54.1941C163.482 54.5586 163.448 54.923 163.37 55.2806C163.231 55.9175 163.001 56.5323 162.69 57.1062C162.374 57.6869 161.98 58.2216 161.527 58.7001C161.075 59.1787 160.565 59.5976 160.01 59.9484C158.385 61.023 156.555 61.5202 154.617 61.5219C153.16 61.5219 151.692 61.2869 150.38 60.6194H150.376L150.354 60.6057C149.717 60.2686 149.161 59.8002 148.692 59.2502C148.131 58.5928 147.791 57.8078 147.791 56.9342C147.791 56.7145 147.825 56.5016 147.872 56.2871C147.877 56.2598 147.884 56.2326 147.891 56.2053L147.953 55.9209L147.973 55.9243C148.06 55.6791 148.18 55.4458 148.329 55.2295C148.557 54.8974 148.849 54.6182 149.191 54.4087C149.585 54.1669 150.025 54.0375 150.488 54.0357C151.55 54.0357 152.362 54.6778 152.767 55.6416V55.6467C152.889 55.9175 153.004 56.2002 153.156 56.4539L153.167 56.4744C153.192 56.5152 153.273 56.58 153.312 56.6089C153.726 56.9257 154.266 57.0108 154.773 57.0108C155.108 57.0108 155.441 56.941 155.757 56.8337C156.046 56.7349 156.307 56.5834 156.532 56.3756C156.665 56.2513 156.746 56.1168 156.79 55.9431C156.278 55.691 155.507 55.5548 154.966 55.4526C153.747 55.2244 152.387 54.8498 151.401 54.0613C150.295 53.1775 149.715 51.9547 149.714 50.5345C149.714 50.1718 149.744 49.8073 149.822 49.4531C149.955 48.8417 150.189 48.261 150.49 47.7144C150.801 47.1507 151.193 46.6347 151.64 46.1749C152.076 45.7253 152.556 45.3183 153.085 44.9812C153.594 44.6576 154.142 44.3953 154.71 44.1961C155.252 44.0054 155.808 43.8572 156.376 43.7721C156.922 43.6903 157.474 43.6495 158.025 43.6495C159.717 43.6477 161.366 44.0003 162.842 44.8534L162.9 44.8875L162.954 44.9267C163.521 45.3252 163.935 45.8922 163.987 46.6024L163.991 46.6569V46.7114C163.991 46.96 163.974 47.2069 163.947 47.4521L164.009 47.3823L163.822 48.2474C163.784 48.4313 163.745 48.6153 163.701 48.7975H163.703ZM159.602 49.6183C159.579 49.5757 159.557 49.5314 159.537 49.4872C159.378 49.15 159.22 48.8094 159.065 48.4705C158.997 48.3223 158.892 48.2168 158.757 48.1299C158.574 48.0107 158.099 47.9903 157.884 47.9903C157.644 47.9903 157.406 48.0448 157.181 48.1231C156.983 48.1929 156.8 48.2951 156.648 48.4399C156.574 48.5097 156.53 48.5829 156.505 48.68C156.505 48.6868 156.503 48.6936 156.501 48.7004C156.799 48.852 157.157 48.9558 157.465 49.0393L158.874 49.4208C159.114 49.4787 159.359 49.5434 159.604 49.6166L159.602 49.6183ZM145.73 50.732C146.685 50.5532 147.346 49.8226 147.571 48.8213C147.727 48.1333 147.862 47.4368 147.862 46.7284V46.6722L147.857 46.616C147.803 45.9059 147.388 45.3405 146.822 44.942L146.766 44.9028L146.707 44.8688C145.227 44.0258 143.585 43.6648 141.893 43.6665C141.341 43.6665 140.79 43.7073 140.244 43.7891C139.676 43.8742 139.119 44.0224 138.578 44.2131C138.01 44.4141 137.464 44.6746 136.953 44.9999C136.424 45.3354 135.944 45.7424 135.507 46.1937C135.059 46.6552 134.669 47.1695 134.358 47.7331C134.057 48.2798 133.823 48.8605 133.69 49.4718C133.612 49.8261 133.581 50.1905 133.581 50.5532C133.583 51.9735 134.163 53.1962 135.269 54.08C136.255 54.8685 137.614 55.2431 138.834 55.4713C139.375 55.5735 140.146 55.708 140.658 55.9618C140.614 56.1355 140.533 56.27 140.399 56.3943C140.175 56.6021 139.914 56.7537 139.625 56.8524C139.309 56.9597 138.976 57.0295 138.641 57.0295C138.134 57.0295 137.594 56.9444 137.18 56.6276C137.143 56.5987 137.063 56.534 137.036 56.4948L137.024 56.4744C136.872 56.2206 136.759 55.9379 136.639 55.6689C136.233 54.7033 135.423 54.0545 134.356 54.0562C133.894 54.0562 133.453 54.1856 133.061 54.4291C132.719 54.6403 132.426 54.9196 132.198 55.2517C132.046 55.473 131.922 55.7149 131.835 55.9686H131.821L131.772 56.1781C131.76 56.2223 131.75 56.2666 131.742 56.3126C131.694 56.5238 131.66 56.7366 131.662 56.9546C131.662 57.8282 132.004 58.6133 132.563 59.2706C133.032 59.819 133.59 60.2822 134.222 60.6245L134.246 60.6381H134.248C135.56 61.3074 137.028 61.5441 138.485 61.5424C140.425 61.5407 142.255 61.0417 143.88 59.9654C144.434 59.618 144.943 59.1957 145.393 58.7206C145.846 58.2403 146.24 57.7073 146.556 57.1266C146.868 56.5544 147.098 55.9396 147.236 55.3027C147.314 54.9468 147.348 54.5807 147.348 54.2163C147.348 52.9884 146.932 51.8696 146.046 51.0113L146.025 50.9926H146.024C145.929 50.9006 145.829 50.8155 145.728 50.7354L145.73 50.732ZM140.371 48.7208L140.374 48.7004C140.399 48.6033 140.443 48.5301 140.518 48.4603C140.672 48.3138 140.853 48.2134 141.051 48.1435C141.275 48.0635 141.516 48.0107 141.754 48.0107C141.969 48.0107 142.444 48.0311 142.627 48.1503C142.762 48.2389 142.867 48.3428 142.934 48.4909C143.09 48.8298 143.247 49.1687 143.404 49.5076C143.425 49.5519 143.447 49.5962 143.47 49.6387C143.225 49.5655 142.98 49.4991 142.74 49.4429L141.331 49.0614C141.023 48.978 140.665 48.8741 140.367 48.7242L140.371 48.7208ZM101.547 47.7604L99.6024 57.0363V57.0398C99.5922 57.0891 99.5838 57.1385 99.5736 57.1896L99.528 57.2135C99.3048 57.3361 99.0866 57.4638 98.8871 57.6239H98.8837L98.8448 57.6579H98.8414C98.4829 57.9696 98.2682 58.3868 98.1769 58.85L98.1481 58.9947V59.1412C98.1481 60.4865 99.1577 61.292 100.441 61.2903L104.156 61.2852C105.117 61.2852 105.983 60.9089 106.434 60.1204C106.627 60.5308 106.951 60.8646 107.41 61.0519L107.437 61.0621H107.438C107.851 61.2273 108.291 61.2801 108.73 61.2784L112.549 61.2733C113.717 61.2733 114.845 60.776 115.109 59.5244L115.141 59.3728V59.2178C115.141 58.7802 115.045 58.3578 114.786 57.9968C114.625 57.772 114.422 57.5898 114.199 57.4297L114.157 57.3991H114.153C114.133 57.3173 114.12 57.2322 114.103 57.1556C113.864 55.8477 113.529 54.5109 112.978 53.2916L112.992 53.283C113.475 52.985 113.934 52.6427 114.351 52.2545C114.783 51.8526 115.16 51.3945 115.471 50.8904C115.795 50.3625 116.03 49.7835 116.154 49.1755L116.159 49.1449C116.216 48.8417 116.242 48.5335 116.242 48.2253C116.242 47.51 116.073 46.8186 115.723 46.1954C115.366 45.5602 114.852 45.0629 114.221 44.7087C113.127 44.0939 111.615 43.9951 110.381 44.0003L103.431 44.0275C102.237 44.0326 101.187 44.6116 100.916 45.8497L100.882 46.008V46.1698C100.882 46.7863 101.124 47.338 101.549 47.7604H101.547ZM106.515 58.1893C106.405 57.9559 106.253 57.7431 106.067 57.554L106.552 55.2295C106.671 55.5173 106.776 55.8102 106.875 56.1048C107.028 56.5459 107.166 57.0108 107.239 57.4774C107.225 57.4859 107.212 57.4944 107.198 57.5047C106.914 57.6784 106.683 57.9134 106.515 58.1893ZM90.2512 55.8307L89.9231 57.3786C90.1565 57.5302 90.3594 57.7175 90.5183 57.9525C90.7703 58.3289 90.8531 58.758 90.8531 59.2059V59.3813L90.8126 59.5516C90.6316 60.3128 90.104 60.8867 89.3617 61.1217C88.8967 61.2699 88.4063 61.3039 87.9193 61.3056L84.2785 61.3108C82.9951 61.3108 81.9855 60.507 81.9855 59.1616V59.0118L82.016 58.8653C82.1073 58.4123 82.3136 58.0019 82.6602 57.692H82.6636L82.6991 57.6596H82.7008C82.9054 57.4876 83.132 57.3548 83.3688 57.2339L83.4111 57.2101C83.4195 57.1675 83.4263 57.1249 83.433 57.0823L83.4381 57.0534L85.398 47.7706C85.2779 47.6616 85.1697 47.5441 85.0733 47.4096C84.8112 47.0434 84.7165 46.616 84.7165 46.1715V46.0166L84.7486 45.865C85.0107 44.6099 86.0879 44.0309 87.2902 44.0292L93.3068 44.0224C94.0475 44.0224 94.7898 44.065 95.5237 44.1825C96.2525 44.2983 96.9627 44.5231 97.6002 44.9011C98.9683 45.71 99.7444 46.9923 99.7461 48.5999C99.7461 48.9644 99.7157 49.3288 99.6413 49.6864C99.3944 50.8802 98.8025 51.9122 97.9452 52.7688C97.12 53.593 96.1477 54.235 95.0891 54.7135C93.5909 55.3913 91.8897 55.691 90.2528 55.8341L90.2512 55.8307ZM71.3407 58.0343C71.4033 57.9508 71.4675 57.8674 71.5301 57.7839C71.9004 57.302 72.291 56.8354 72.6969 56.3807C72.9336 56.8167 73.1585 57.2577 73.3682 57.7056C73.38 57.7312 73.3919 57.7567 73.4037 57.7822C73.0993 58.0734 72.9099 58.4515 72.8254 58.8721L72.7949 59.0186V59.1684C72.7949 60.1051 73.3022 60.8935 74.1816 61.2239L74.4318 61.3176L79.0483 61.3125C79.4896 61.3125 79.9327 61.2614 80.352 61.1166C81.0775 60.8663 81.5679 60.2771 81.737 59.5295L81.7742 59.366V59.1991C81.7742 58.4788 81.4698 57.8436 80.9202 57.428L80.9287 57.411L80.7241 57.2969C80.6835 57.2731 80.6429 57.2492 80.6006 57.2271C80.5854 57.2186 80.5702 57.2101 80.555 57.2032C80.5194 57.1283 80.489 57.0449 80.4569 56.9733L80.0663 56.0435L77.9728 52.2987L80.6361 49.5876L81.6981 48.4279C81.7234 48.4007 81.7505 48.3666 81.7775 48.3428C81.8486 48.2968 81.9314 48.2593 82.0058 48.2202C82.2646 48.0873 82.5182 47.9494 82.7549 47.7774L82.7668 47.7689L82.8006 47.7433H82.8023C83.2115 47.4198 83.4669 46.9668 83.5717 46.4576L83.6038 46.3078V46.1545C83.6038 45.2707 83.1287 44.5094 82.2832 44.2216C81.8739 44.0752 81.4275 44.0343 80.9963 44.036H78.7828C77.6549 44.0394 76.6217 44.569 76.3663 45.7526L76.3325 45.9076V46.0659C76.3325 46.49 76.4391 46.9004 76.6809 47.2512C76.6978 47.2767 76.7164 47.3023 76.735 47.3278C76.6149 47.4658 76.4881 47.6003 76.363 47.7348C76.1414 47.9732 75.9182 48.21 75.6933 48.445C75.5276 48.135 75.3687 47.8217 75.2198 47.5049C75.4989 47.2222 75.6916 46.8714 75.7829 46.4781L75.8202 46.3129V46.1443C75.8202 45.3779 75.482 44.6797 74.7819 44.334C74.4386 44.1586 74.048 44.0854 73.6675 44.0496L73.5982 44.0428L69.2388 44.0479L69.1289 44.065C68.1312 44.2182 67.3364 44.8483 67.1419 45.8752L67.1166 46.0114V46.1511C67.1166 46.6705 67.2535 47.166 67.5951 47.5645C67.7811 47.7825 68.006 47.9579 68.2495 48.1061C68.258 48.1282 68.2648 48.1486 68.2715 48.1674C68.6486 49.1687 69.0578 50.1598 69.5229 51.1237C69.7681 51.6312 70.0369 52.1284 70.3278 52.6104L66.9542 56.2172L66.9339 56.2411C66.7276 56.4778 66.5196 56.723 66.2863 56.9325H66.2829L66.2491 56.9665H66.2474C66.1848 57.0278 66.0377 57.096 65.9599 57.13C65.6623 57.2594 65.3748 57.4025 65.1144 57.5966C64.6748 57.9236 64.3941 58.3953 64.2977 58.9351L64.274 59.0663V59.1991C64.274 59.9791 64.6156 60.6943 65.3275 61.0502C65.7384 61.2563 66.1882 61.3295 66.6448 61.3295L69.7072 61.3261L69.834 61.3039C70.7624 61.1371 71.4946 60.5325 71.6992 59.584L71.733 59.429V59.2689C71.733 58.9164 71.6484 58.5707 71.4827 58.2608V58.2574L71.4523 58.208V58.2046C71.4151 58.1467 71.3796 58.0905 71.3424 58.036L71.3407 58.0343ZM107.516 50.5311L107.868 48.8554C107.893 48.7447 107.941 48.5454 107.993 48.399C108.152 48.37 108.407 48.3598 108.507 48.3598C108.781 48.3598 109.185 48.3888 109.422 48.5437C109.429 48.5744 109.429 48.6374 109.429 48.6612C109.429 48.7447 109.388 48.8911 109.371 48.9746C109.319 49.2351 109.212 49.4582 109.031 49.6541C108.788 49.9146 108.5 50.119 108.177 50.2688C107.963 50.3693 107.741 50.4561 107.515 50.5294L107.516 50.5311ZM91.8272 48.37C91.7984 48.4671 91.7747 48.5863 91.7612 48.6493L91.7561 48.6732L91.2877 50.887C91.6851 50.715 92.0538 50.4851 92.3784 50.1939C92.6777 49.9265 92.8485 49.6064 92.9382 49.2181C92.9568 49.1091 92.9889 48.9712 92.9889 48.8639C92.9889 48.7515 92.9855 48.6033 92.8908 48.525C92.7149 48.3785 92.3581 48.353 92.14 48.353C92.0724 48.353 91.9337 48.3564 91.8255 48.37H91.8272Z" fill="black" stroke="#1D1D1B" stroke-width="0.22" stroke-miterlimit="22.93"/>
<path fill-rule="evenodd" clip-rule="evenodd" d="M156.148 48.6051C156.139 48.6647 156.128 48.7362 156.128 48.7924C156.128 48.8213 156.129 48.8946 156.143 48.9269C156.146 48.9286 156.149 48.932 156.151 48.9337C156.505 49.1568 156.978 49.2999 157.379 49.4088L158.793 49.792C159.876 50.0509 161.086 50.4681 161.911 51.248L161.921 51.2565L161.936 51.2719C162.729 52.0706 163.115 53.0736 163.116 54.1975C163.116 54.5347 163.086 54.8719 163.013 55.2023C162.881 55.8051 162.665 56.3858 162.371 56.9257C162.07 57.4774 161.696 57.9849 161.265 58.4413C160.834 58.8977 160.347 59.2962 159.817 59.6317C158.251 60.6671 156.494 61.1439 154.628 61.1456C153.234 61.1456 151.821 60.9259 150.561 60.2839L150.54 60.2737C149.947 59.9535 149.426 59.521 148.988 59.0067C148.486 58.4192 148.178 57.721 148.178 56.9376C148.178 56.7452 148.209 56.5595 148.251 56.3722V56.3807C148.315 56.0452 148.455 55.7319 148.648 55.4509C148.846 55.1631 149.101 54.9196 149.397 54.7374C149.732 54.5313 150.104 54.4206 150.498 54.4206C151.42 54.4206 152.091 54.986 152.431 55.7983L152.434 55.8068C152.561 56.0912 152.683 56.3909 152.844 56.6566L152.854 56.6736C152.904 56.7605 153.014 56.8559 153.094 56.9155C153.577 57.285 154.188 57.3957 154.783 57.394C155.16 57.394 155.532 57.3173 155.887 57.1964C156.227 57.0806 156.532 56.9018 156.795 56.6583C156.997 56.4727 157.118 56.2581 157.176 55.9908L157.183 55.9567V55.9482C157.188 55.9107 157.186 55.8681 157.186 55.8324C157.186 55.8102 157.186 55.7489 157.174 55.7268C157.161 55.7115 157.118 55.6876 157.102 55.6791L157.069 55.6621C156.528 55.3624 155.651 55.1989 155.044 55.0848C153.892 54.8685 152.575 54.5126 151.645 53.7701C150.628 52.9578 150.101 51.8441 150.099 50.5396C150.099 50.2041 150.126 49.8669 150.199 49.54C150.324 48.9644 150.546 48.4177 150.828 47.9034C151.122 47.3687 151.494 46.8817 151.919 46.444C152.335 46.0149 152.793 45.6266 153.297 45.3064C153.782 44.9982 154.303 44.7496 154.844 44.5571C155.363 44.3732 155.896 44.2319 156.44 44.1501C156.968 44.0701 157.501 44.0326 158.035 44.0326C159.662 44.0309 161.244 44.3681 162.667 45.1872L162.711 45.2128L162.751 45.2417C163.221 45.5738 163.581 46.0387 163.625 46.6347L163.629 46.6739V46.7148C163.629 47.3908 163.5 48.0669 163.346 48.7226V48.7192C163.133 49.7052 162.437 50.3812 161.403 50.3829C160.705 50.3829 160.176 49.9453 159.888 49.3305C159.729 48.9933 159.574 48.6561 159.418 48.3173C159.32 48.1027 159.17 47.9443 158.973 47.8166C158.71 47.6446 158.201 47.6156 157.896 47.6173C157.614 47.6173 157.335 47.6786 157.068 47.7723C156.819 47.8592 156.593 47.9886 156.4 48.1725C156.27 48.2968 156.188 48.4365 156.146 48.6102L156.148 48.6051ZM140.019 48.6238C140.011 48.6834 139.999 48.7549 139.999 48.8111C139.999 48.8401 140 48.9133 140.014 48.9456C140.017 48.9473 140.021 48.9508 140.022 48.9525C140.376 49.1755 140.849 49.3186 141.25 49.4259L142.664 49.809C143.748 50.0679 144.957 50.4851 145.782 51.2651L145.801 51.2838C146.607 52.0757 146.986 53.0906 146.988 54.2163C146.988 54.5535 146.957 54.8906 146.885 55.221C146.753 55.8239 146.536 56.4046 146.242 56.9444C145.941 57.4962 145.567 58.0036 145.136 58.46C144.705 58.9164 144.218 59.3183 143.694 59.6453H143.697C142.129 60.6824 140.369 61.1609 138.501 61.1626C137.107 61.1626 135.693 60.9429 134.434 60.3009L134.413 60.2907C133.82 59.9706 133.299 59.538 132.861 59.0237C132.359 58.4362 132.051 57.738 132.051 56.9546C132.051 56.7605 132.081 56.5715 132.122 56.3961C132.188 56.0623 132.328 55.7472 132.521 55.4679C132.719 55.1801 132.974 54.9366 133.27 54.7544C133.605 54.5484 133.977 54.4377 134.371 54.4377C135.293 54.4377 135.964 55.003 136.307 55.8222V55.8188C136.434 56.1031 136.556 56.4063 136.718 56.6719L136.73 56.6907C136.781 56.7775 136.891 56.8712 136.968 56.9308C137.452 57.3003 138.063 57.411 138.658 57.4093C139.035 57.4093 139.407 57.3327 139.762 57.2118C140.102 57.096 140.406 56.9172 140.67 56.6736C140.871 56.488 140.993 56.2751 141.051 56.0061L141.057 55.9703V55.9618C141.062 55.926 141.061 55.8818 141.061 55.846C141.061 55.8222 141.061 55.7609 141.049 55.7404C141.037 55.7251 140.993 55.7013 140.976 55.6927L140.944 55.6757C140.403 55.376 139.525 55.2125 138.918 55.0984C137.767 54.8821 136.449 54.5262 135.519 53.7837C134.503 52.9714 133.975 51.8577 133.974 50.5532C133.974 50.2177 134.001 49.8806 134.073 49.5536C134.199 48.978 134.42 48.4314 134.703 47.9171C134.997 47.3823 135.369 46.8953 135.793 46.4576C136.209 46.0285 136.667 45.6402 137.171 45.3201C137.657 45.0118 138.178 44.7632 138.719 44.5708C139.238 44.3868 139.772 44.2455 140.315 44.1638C140.843 44.0837 141.375 44.0463 141.91 44.0463C143.536 44.0446 145.116 44.3868 146.538 45.1991L146.582 45.2247L146.624 45.2536C147.094 45.584 147.453 46.0506 147.5 46.6467L147.503 46.6875V46.7284C147.503 47.4045 147.377 48.0822 147.221 48.7379C147.006 49.7222 146.31 50.3949 145.28 50.3966C144.58 50.3966 144.052 49.9589 143.765 49.3441C143.607 49.007 143.45 48.6698 143.296 48.3309C143.198 48.1163 143.048 47.9579 142.851 47.8302C142.588 47.6582 142.079 47.6293 141.774 47.631C141.492 47.631 141.213 47.6923 140.946 47.7859C140.697 47.8745 140.471 48.0022 140.278 48.1861C140.148 48.3104 140.066 48.4501 140.024 48.6238H140.019ZM126.046 53.9472C125.958 53.937 125.838 53.9404 125.766 53.9404H123.708L123.188 56.4148C123.145 56.6447 123.101 56.8746 123.068 57.1062C123.063 57.1368 123.058 57.1692 123.055 57.2015C123.54 57.2594 124.034 57.2612 124.521 57.2646C124.854 57.2646 125.189 57.2543 125.52 57.2135C125.722 57.1879 125.919 57.1164 126.102 57.0313C126.344 56.9189 126.571 56.7486 126.767 56.5698C127.068 56.299 127.359 56.0231 127.685 55.783L127.702 55.7711C128.069 55.5088 128.495 55.3504 128.948 55.3504C129.401 55.3504 129.826 55.5156 130.137 55.8392H130.135C130.473 56.1747 130.617 56.6226 130.617 57.0943V57.2169L130.59 57.3361C130.429 58.0547 130.044 58.7615 129.694 59.395V59.3915C129.464 59.8343 129.164 60.3043 128.733 60.57L128.715 60.5802C128.283 60.8356 127.737 60.8782 127.247 60.8782L117.733 60.8884C116.663 60.8884 115.817 60.2566 115.817 59.1174V59.0067L115.839 58.8994C115.914 58.5264 116.081 58.191 116.365 57.9355C116.556 57.7635 116.775 57.6341 116.999 57.5132L117.02 57.503L117.191 57.4212C117.214 57.3139 117.233 57.2016 117.25 57.1045L117.255 57.0806L119.233 47.7536C119.242 47.6957 119.254 47.6395 119.267 47.5833C119.106 47.4556 118.956 47.3159 118.836 47.1473C118.619 46.8476 118.55 46.4934 118.55 46.129V46.0081L118.575 45.8906C118.81 44.8177 119.732 44.3664 120.747 44.3647L129.843 44.3545C130.511 44.3545 131.278 44.4345 131.72 45.0101L131.775 45.0834L131.818 45.1634C131.988 45.4835 132.022 45.8514 132.022 46.209C132.022 46.7352 131.977 47.2631 131.867 47.7774C131.655 48.7719 130.974 49.4906 129.922 49.4906C129.493 49.4906 129.078 49.368 128.752 49.0768L128.727 49.0529L128.72 49.0461C128.52 48.8503 128.366 48.6238 128.218 48.3888C128.118 48.2304 127.999 48.1197 127.822 48.0652C127.294 47.9545 126.704 47.9545 126.166 47.9562C125.85 47.9562 125.258 47.9409 124.937 48.026L124.506 50.1258H126.094C126.192 50.1241 126.39 50.1241 126.489 50.0968C126.611 50.0355 126.731 49.947 126.838 49.8635C127.198 49.586 127.61 49.3952 128.07 49.3952C129.058 49.3952 129.652 50.1496 129.652 51.0999C129.652 51.4183 129.596 51.7232 129.542 52.045L129.538 52.0654L129.533 52.0859C129.428 52.5695 129.312 53.0515 129.119 53.5078C128.821 54.2129 128.189 54.6011 127.436 54.6011C126.959 54.6011 126.535 54.4053 126.193 54.0783C126.151 54.0375 126.095 53.9847 126.043 53.9421L126.046 53.9472ZM99.9186 57.44L99.7208 57.5472C99.5162 57.6596 99.3183 57.7737 99.134 57.9202L99.1019 57.9474C98.8076 58.2012 98.6352 58.5435 98.5608 58.9232L98.5388 59.0305V59.1395C98.5388 60.2788 99.3843 60.9106 100.455 60.9106L104.17 60.9055C105.181 60.9055 106.087 60.4457 106.333 59.3813L106.361 59.2587V59.1327C106.361 58.5537 106.103 58.0496 105.666 57.6886C105.676 57.6409 105.687 57.5932 105.697 57.5455L106.27 54.8038L106.755 54.7255C106.946 55.1308 107.1 55.5599 107.246 55.9805C107.428 56.5119 107.597 57.096 107.658 57.6665C107.575 57.7192 107.493 57.772 107.41 57.8265C107.011 58.0684 106.73 58.46 106.639 58.9386L106.618 59.0424V59.148C106.618 59.8224 106.928 60.4303 107.567 60.6994L107.591 60.7096C107.958 60.8561 108.353 60.8987 108.744 60.8987L112.562 60.8936C113.54 60.8936 114.529 60.5172 114.755 59.4443L114.779 59.3302V59.2144C114.779 58.8585 114.708 58.5094 114.497 58.2165C114.36 58.0258 114.186 57.8708 113.996 57.7346L113.964 57.7107L113.93 57.6903C113.907 57.675 113.874 57.6562 113.847 57.6358C113.803 57.5098 113.77 57.3242 113.746 57.2152V57.2237C113.499 55.8528 113.13 54.407 112.505 53.1366C112.608 53.0787 112.709 53.0174 112.811 52.9561C113.274 52.6717 113.712 52.3447 114.111 51.9735C114.519 51.5954 114.874 51.1629 115.166 50.6878C115.467 50.199 115.686 49.6626 115.801 49.0972L115.806 49.0717C115.856 48.7924 115.882 48.508 115.882 48.2236C115.882 47.5731 115.729 46.9464 115.412 46.3793C115.089 45.8037 114.625 45.3575 114.054 45.0374C113.029 44.4618 111.558 44.3715 110.399 44.3766L103.449 44.4039C102.442 44.4073 101.535 44.8637 101.3 45.9297L101.275 46.0472V46.1681C101.275 46.7556 101.539 47.2631 101.982 47.6276C101.973 47.6565 101.966 47.6855 101.96 47.7127L101.955 47.7331L99.988 57.1113C99.9677 57.2118 99.9491 57.3293 99.922 57.4383L99.9186 57.44ZM89.9536 55.4765L89.5173 57.5336C89.5173 57.5473 89.5173 57.5609 89.5156 57.5745L89.541 57.5864C89.8098 57.7244 90.0483 57.9117 90.2191 58.1654C90.4287 58.4771 90.4879 58.8381 90.4879 59.2059V59.3353L90.4575 59.4614C90.3087 60.0932 89.8758 60.5632 89.2603 60.7573C88.8341 60.8918 88.3759 60.9225 87.9311 60.9225L84.2904 60.9276C83.22 60.9276 82.3745 60.2958 82.3745 59.1565V59.0458L82.3965 58.9369C82.4726 58.5639 82.6366 58.2267 82.9224 57.9713L82.9528 57.9457C83.1439 57.7874 83.3553 57.6682 83.5548 57.5643L83.7527 57.4553C83.7797 57.3514 83.7983 57.2424 83.8152 57.1436L83.8186 57.1215L85.7869 47.7962C85.7954 47.7365 85.8089 47.6804 85.8208 47.6225C85.6601 47.493 85.5096 47.3551 85.3879 47.1831C85.1731 46.8834 85.1021 46.5292 85.1021 46.1664V46.0506L85.1258 45.9382C85.3524 44.8586 86.2824 44.4039 87.2987 44.4039L93.3153 44.3971C94.0373 44.3971 94.7594 44.4379 95.473 44.552C96.1545 44.661 96.8207 44.8705 97.4176 45.223C98.669 45.9638 99.3758 47.1218 99.3775 48.5965C99.3775 48.9354 99.3488 49.2743 99.2811 49.6047C99.0495 50.7252 98.4948 51.6908 97.6882 52.4946C96.8951 53.2865 95.96 53.9029 94.942 54.3627C93.41 55.0558 91.6327 55.3436 89.9502 55.4748L89.9536 55.4765ZM80.2844 57.4757C80.2252 57.377 80.166 57.2203 80.1238 57.1249L79.7399 56.2121L77.5163 52.2357L80.374 49.3254L81.4343 48.1674C81.463 48.1384 81.5205 48.0686 81.5662 48.0346C81.6507 47.9784 81.7505 47.929 81.8452 47.8813C82.087 47.757 82.3238 47.6293 82.5453 47.4692L82.5537 47.4624L82.5808 47.4419C82.9207 47.1746 83.127 46.7999 83.2149 46.3793L83.2386 46.2669V46.1528C83.2386 45.4325 82.8666 44.8126 82.1699 44.5776C81.8114 44.4481 81.4022 44.4124 81.0082 44.4124L78.7946 44.4158C77.8528 44.4158 76.9633 44.8228 76.7452 45.8309L76.7198 45.9467V46.0642C76.7198 46.4117 76.8043 46.7471 77.0005 47.0349C77.0715 47.1388 77.151 47.2325 77.2389 47.321C77.0512 47.5628 76.8077 47.82 76.6488 47.992C76.3106 48.3564 75.9673 48.7174 75.6206 49.0734L75.6105 49.0546C75.3501 48.5914 75.1049 48.1197 74.8783 47.6378C74.8428 47.5628 74.8056 47.4845 74.7718 47.4045C74.7887 47.3909 74.8056 47.3772 74.8225 47.3636C75.1286 47.1133 75.3382 46.7778 75.4279 46.3895L75.4566 46.2669V46.1409C75.4566 45.5227 75.2013 44.9522 74.6263 44.6712C74.3338 44.5214 73.9854 44.4567 73.6456 44.4243L73.5931 44.4192L69.2794 44.4243L69.1982 44.4362C68.3629 44.5639 67.6882 45.0731 67.5241 45.9416L67.5055 46.0438V46.1477C67.5055 46.5734 67.6104 46.9838 67.8928 47.3142C68.0771 47.5288 68.3054 47.6957 68.5489 47.8336L68.5573 47.8387C68.5861 47.8932 68.6165 47.9784 68.6351 48.0295C69.0088 49.0206 69.413 49.9998 69.8729 50.9534C70.1553 51.5375 70.4682 52.1063 70.8131 52.6547L67.2451 56.4676L67.2299 56.4863C67.0134 56.7349 66.7936 56.9921 66.5484 57.2118L66.518 57.239C66.4182 57.3344 66.2457 57.4195 66.1206 57.474C65.85 57.5915 65.5862 57.7209 65.3495 57.8981C64.9876 58.1671 64.7593 58.5554 64.6799 58.9999L64.663 59.0969V59.1957C64.663 59.8275 64.9251 60.415 65.5085 60.7079C65.8653 60.8867 66.2609 60.948 66.6566 60.9463L69.6869 60.9429L69.7816 60.9259C70.5578 60.7863 71.1733 60.2958 71.3441 59.4988L71.3695 59.383V59.2638C71.3695 58.9726 71.3001 58.6916 71.1632 58.4345L71.1395 58.3919C71.0651 58.2676 70.9805 58.1501 70.8892 58.0377C71.0042 57.8589 71.1598 57.6596 71.2477 57.5472C71.6705 56.9989 72.1169 56.4693 72.5802 55.9567C72.6479 55.8818 72.7155 55.8068 72.7848 55.7319C73.118 56.3228 73.4342 56.9257 73.7216 57.5404C73.7758 57.6545 73.8299 57.7703 73.8806 57.8878C73.862 57.9015 73.8434 57.9134 73.8248 57.927C73.4866 58.1756 73.2887 58.5367 73.2059 58.9437L73.1839 59.0527V59.1634C73.1839 59.9399 73.5948 60.5887 74.3253 60.8646L74.5113 60.9344L79.0601 60.9293C79.4592 60.9293 79.8634 60.885 80.2421 60.7539C80.8441 60.5461 81.2415 60.0591 81.3819 59.4409L81.4089 59.32V59.1957C81.4089 58.4839 81.0623 57.881 80.4282 57.5558L80.4349 57.5592C80.3977 57.5387 80.3335 57.5047 80.2844 57.4706V57.4757ZM61.357 48.1453C60.8328 48.0329 60.241 48.0363 59.7066 48.0363C59.387 48.0363 58.8036 48.0226 58.4773 48.1078L58.0461 50.2075H59.6339C59.732 50.2058 59.9298 50.2058 60.0296 50.1786C60.1514 50.1173 60.2714 50.027 60.378 49.9453C60.7381 49.6694 61.1507 49.477 61.6107 49.477C62.5982 49.477 63.1918 50.2314 63.1935 51.1816C63.1935 51.5001 63.1377 51.8049 63.0852 52.1182L63.0768 52.1625C62.9753 52.6462 62.8553 53.1315 62.6625 53.5879C62.3649 54.2929 61.7324 54.6812 60.98 54.6812C60.5031 54.6812 60.0786 54.4853 59.7371 54.1584C59.6948 54.1175 59.6407 54.0647 59.5866 54.0221C59.4986 54.0119 59.3786 54.0153 59.3059 54.0153H57.2479L56.7288 56.4897C56.6848 56.7196 56.6408 56.9495 56.6087 57.1811C56.6036 57.2118 56.5986 57.2441 56.5952 57.2782C57.0805 57.3361 57.5743 57.3378 58.0613 57.3395C58.3944 57.3395 58.7292 57.331 59.0607 57.2884C59.2619 57.2629 59.4597 57.1913 59.6441 57.1062C59.8859 56.9938 60.1108 56.8235 60.3086 56.6447C60.6079 56.3739 60.9005 56.0997 61.2251 55.8596L61.2454 55.846C61.6124 55.5837 62.0385 55.4271 62.4917 55.4254C62.9449 55.4254 63.3693 55.5906 63.6805 55.9141H63.6788C64.017 56.2496 64.1607 56.6975 64.1607 57.1692V57.2918L64.1337 57.411C63.973 58.1297 63.5875 58.8364 63.2374 59.4699V59.4665C63.0058 59.9109 62.7082 60.3827 62.2719 60.6466L62.2516 60.6585C61.8221 60.9089 61.2776 60.9514 60.7906 60.9532L51.277 60.9651C50.2066 60.9651 49.3611 60.3333 49.3611 59.194V59.0833L49.3831 58.9743C49.4575 58.6014 49.6249 58.2659 49.909 58.0122C50.1001 57.8402 50.3165 57.7124 50.5414 57.5898L50.5617 57.5796L50.7325 57.4962C50.7562 57.3889 50.7748 57.2765 50.7917 57.1794L50.7951 57.1607L52.7752 47.8285C52.7837 47.7706 52.7955 47.7144 52.809 47.6582C52.6484 47.5322 52.4979 47.3891 52.3778 47.2223C52.1614 46.9225 52.0921 46.57 52.0921 46.2073V46.0864L52.1174 45.9672C52.3525 44.8943 53.2758 44.443 54.2887 44.4413L63.3846 44.4311C64.0542 44.4311 64.8219 44.5112 65.2633 45.0885L65.3191 45.16L65.3613 45.24C65.5321 45.5602 65.5659 45.928 65.5659 46.2839C65.5659 46.8101 65.5203 47.3381 65.4104 47.8523C65.199 48.8469 64.5175 49.5655 63.464 49.5655C63.0328 49.5655 62.6168 49.4446 62.2922 49.15L62.2668 49.1262C62.0639 48.9303 61.9117 48.7021 61.7612 48.4654C61.6597 48.3053 61.5397 48.1963 61.3604 48.1419L61.357 48.1453ZM107.034 51.0539L107.513 48.7736C107.545 48.6289 107.64 48.2508 107.731 48.0891C107.905 47.9988 108.362 47.9801 108.519 47.9801C108.883 47.9801 109.341 48.0243 109.65 48.2321C109.801 48.3326 109.818 48.4875 109.818 48.6595C109.818 48.7719 109.775 48.9405 109.753 49.0495C109.686 49.3799 109.549 49.666 109.319 49.9112C109.042 50.2075 108.715 50.4391 108.35 50.6111C107.929 50.807 107.488 50.9551 107.034 51.0522V51.0539ZM90.7923 51.4728C90.9141 51.4337 91.0358 51.3928 91.1576 51.3502C91.7054 51.1527 92.2094 50.8649 92.6439 50.4749C93.0041 50.1513 93.2155 49.7614 93.322 49.2913C93.344 49.1585 93.3795 48.9933 93.3795 48.8622C93.3795 48.6187 93.3389 48.3939 93.1462 48.2321C92.8891 48.0175 92.4765 47.9733 92.1552 47.9733C92.0284 47.9733 91.6784 47.9886 91.5651 48.0482C91.4941 48.1623 91.4298 48.4569 91.4061 48.5727L91.4011 48.5948L90.7923 51.4728Z" fill="white" stroke="#1D1D1B" stroke-width="0.22" stroke-miterlimit="22.93"/>
<path fill-rule="evenodd" clip-rule="evenodd" d="M162.777 46.7028V46.6943C162.755 46.3674 162.516 46.117 162.262 45.9399L162.252 45.9331L162.242 45.928C160.95 45.1872 159.513 44.8858 158.035 44.8875C157.543 44.8875 157.053 44.9233 156.566 44.9965C156.073 45.0714 155.593 45.1991 155.123 45.3643C154.641 45.5346 154.179 45.7543 153.748 46.0285C153.3 46.3129 152.894 46.6603 152.526 47.04C152.154 47.4232 151.829 47.8472 151.57 48.3155C151.327 48.7566 151.136 49.2249 151.027 49.7188C150.97 49.9861 150.948 50.262 150.948 50.5345C150.948 51.5784 151.357 52.4452 152.172 53.094C152.976 53.736 154.205 54.0528 155.199 54.2384C155.906 54.3712 156.853 54.5585 157.48 54.9077L157.487 54.9111C157.866 55.1052 158.038 55.4015 158.038 55.8289C158.038 55.9311 158.038 56.0435 158.015 56.1423L158.01 56.1593V56.1695C157.913 56.6123 157.7 56.9818 157.37 57.2884C157.019 57.6136 156.611 57.8521 156.16 58.007C155.715 58.1586 155.253 58.2488 154.783 58.2505C153.995 58.2505 153.217 58.0854 152.578 57.5966C152.404 57.4638 152.233 57.2986 152.12 57.1079L152.116 57.1011C151.936 56.803 151.799 56.4727 151.657 56.1542L151.653 56.1457C151.44 55.6382 151.07 55.2755 150.498 55.2755C150.261 55.2755 150.043 55.3419 149.842 55.4662C149.646 55.5871 149.479 55.7472 149.348 55.9379C149.221 56.1219 149.128 56.3262 149.085 56.5476V56.5578C149.054 56.6804 149.03 56.8116 149.03 56.9359C149.03 57.5115 149.267 58.0155 149.636 58.4481C150.008 58.884 150.446 59.2485 150.945 59.5175L150.955 59.5227C152.084 60.0982 153.375 60.289 154.629 60.289C156.334 60.2873 157.93 59.8581 159.359 58.9113L159.367 58.9062C159.838 58.6116 160.269 58.2574 160.649 57.8521C161.03 57.4502 161.359 57.0023 161.625 56.5152C161.88 56.0452 162.068 55.5429 162.183 55.0183C162.242 54.751 162.266 54.4734 162.266 54.1992C162.266 53.3018 161.968 52.515 161.336 51.8781L161.331 51.873C160.629 51.2088 159.52 50.8461 158.598 50.6264H158.588L157.161 50.2365C156.674 50.1036 156.133 49.9316 155.703 49.6609C155.387 49.4616 155.279 49.1551 155.279 48.7941C155.279 48.6834 155.296 48.5693 155.311 48.4603V48.4467L155.316 48.433C155.394 48.0856 155.563 47.791 155.818 47.5458C156.097 47.2784 156.427 47.0877 156.789 46.96C157.146 46.834 157.518 46.7573 157.896 46.7573C158.395 46.7573 159.007 46.8169 159.435 47.0945C159.768 47.3108 160.025 47.5935 160.193 47.9579C160.347 48.2934 160.502 48.6289 160.658 48.9627C160.803 49.2726 161.043 49.5246 161.403 49.5229C162.033 49.5229 162.389 49.1261 162.516 48.5318V48.525C162.656 47.9426 162.777 47.3142 162.777 46.7148V46.7062V46.7028ZM146.648 46.7216V46.7131C146.624 46.3861 146.387 46.1358 146.134 45.9569L146.125 45.9501L146.115 45.945C144.822 45.2059 143.386 44.9028 141.908 44.9045C141.416 44.9045 140.925 44.9403 140.438 45.0135C139.946 45.0884 139.466 45.2162 138.996 45.3813C138.514 45.5516 138.052 45.7713 137.621 46.0455C137.173 46.3299 136.767 46.6773 136.399 47.057C136.027 47.4402 135.702 47.8642 135.443 48.3326C135.2 48.7736 135.009 49.2419 134.9 49.7358C134.843 50.0032 134.821 50.279 134.821 50.5515C134.821 51.5954 135.23 52.4622 136.045 53.111C136.848 53.7531 138.078 54.0698 139.072 54.2554C139.779 54.3883 140.726 54.5756 141.353 54.9247L141.358 54.9281C141.739 55.1205 141.91 55.4202 141.911 55.846C141.911 55.9482 141.911 56.0606 141.888 56.1593L141.883 56.1764V56.1866C141.786 56.6293 141.573 56.9989 141.243 57.3054C140.892 57.6307 140.484 57.8691 140.033 58.0241C139.588 58.1756 139.126 58.2659 138.656 58.2676C137.868 58.2676 137.089 58.1024 136.451 57.6136C136.277 57.4808 136.104 57.3156 135.993 57.1249L135.989 57.1181C135.808 56.8201 135.671 56.4897 135.529 56.1712L135.526 56.1627C135.313 55.6553 134.943 55.2925 134.371 55.2925C134.134 55.2925 133.916 55.3589 133.715 55.4832C133.519 55.6042 133.351 55.7642 133.221 55.955C133.094 56.1389 133.001 56.3432 132.957 56.5646V56.5748C132.927 56.6958 132.903 56.8286 132.903 56.9529C132.903 57.5285 133.14 58.0326 133.509 58.4651C133.881 58.9011 134.319 59.2655 134.818 59.5346L134.826 59.5397C135.956 60.1153 137.246 60.306 138.501 60.306C140.205 60.3043 141.801 59.8752 143.23 58.9283L143.239 58.9232C143.709 58.6286 144.14 58.2744 144.521 57.8691C144.901 57.4672 145.231 57.0193 145.496 56.5323C145.752 56.0623 145.939 55.5599 146.054 55.0354C146.113 54.768 146.137 54.4904 146.137 54.2163C146.137 53.3205 145.845 52.5303 145.207 51.8968L145.2 51.89C144.499 51.2259 143.388 50.8631 142.468 50.6435L141.03 50.2535C140.543 50.1207 140.002 49.9487 139.573 49.6779C139.256 49.4786 139.148 49.1721 139.148 48.8111C139.148 48.7004 139.165 48.5863 139.18 48.4773V48.4637L139.185 48.4501C139.263 48.1027 139.431 47.808 139.688 47.5628C139.968 47.2955 140.296 47.1047 140.66 46.977C141.017 46.851 141.389 46.7744 141.768 46.7744C142.266 46.7744 142.88 46.834 143.306 47.1115C143.639 47.3278 143.897 47.6105 144.064 47.9749C144.218 48.3104 144.373 48.6459 144.529 48.9797C144.674 49.2896 144.915 49.5417 145.275 49.5417C145.904 49.5417 146.261 49.1449 146.387 48.5505V48.5437C146.528 47.9613 146.648 47.3329 146.648 46.7318V46.725V46.7216ZM128.705 51.9002V51.8951C128.749 51.6414 128.803 51.3604 128.803 51.1033C128.803 50.6264 128.581 50.2535 128.072 50.2552C127.807 50.2552 127.561 50.3897 127.355 50.5481C127.193 50.6724 127.02 50.795 126.836 50.8836C126.647 50.9738 126.308 50.9841 126.095 50.9841L123.461 50.9875L124.149 47.6395C124.195 47.4283 124.421 47.3142 124.602 47.2376L124.616 47.2325L124.629 47.2273C125.047 47.0928 125.717 47.1013 126.165 47.1013C126.767 47.1013 127.424 47.1064 128.015 47.2325H128.026L128.037 47.2376C128.426 47.3483 128.718 47.5867 128.935 47.9273C129.043 48.0976 129.168 48.29 129.313 48.433L129.317 48.4364C129.484 48.5846 129.702 48.634 129.92 48.634C130.563 48.634 130.906 48.1946 131.035 47.5969C131.131 47.1405 131.172 46.6739 131.172 46.209C131.172 46.0131 131.162 45.7441 131.067 45.5687L131.057 45.5516L131.045 45.5363C130.808 45.2264 130.193 45.2128 129.841 45.2128L120.745 45.223C120.14 45.223 119.548 45.4171 119.404 46.0761L119.399 46.1017V46.1289C119.399 46.3009 119.421 46.5002 119.524 46.6449C119.609 46.7624 119.737 46.868 119.85 46.9549L119.856 46.9583L120.202 47.1916L120.173 47.4045C120.163 47.4794 120.146 47.5526 120.128 47.6258C120.108 47.7144 120.082 47.8046 120.069 47.8949V47.9051L118.085 57.2424V57.2526C118.044 57.4638 118.009 57.6869 117.935 57.8878L117.906 57.9627L117.847 58.0189C117.791 58.0717 117.713 58.116 117.642 58.1467L117.397 58.2659H117.393C117.235 58.3527 117.062 58.4515 116.927 58.5724C116.781 58.7018 116.707 58.8772 116.668 59.0663L116.663 59.0901V59.1156C116.663 59.7679 117.128 60.0301 117.727 60.0284L127.24 60.0182C127.551 60.0182 128.004 60.0012 128.278 59.8394L128.285 59.8343C128.561 59.6657 128.791 59.2706 128.938 58.9879L128.941 58.9811C129.242 58.4362 129.619 57.7516 129.755 57.1436L129.761 57.1164V57.0891C129.761 56.849 129.704 56.614 129.531 56.4403L129.526 56.4352C129.371 56.2734 129.166 56.2019 128.945 56.2019C128.667 56.2019 128.41 56.3058 128.189 56.4642L128.18 56.471C127.879 56.6906 127.605 56.9529 127.328 57.2015C127.066 57.4382 126.772 57.6545 126.45 57.8044C126.187 57.927 125.908 58.0223 125.618 58.0581C125.252 58.1041 124.88 58.1177 124.509 58.116C123.988 58.1143 123.462 58.1092 122.945 58.0479C122.752 58.0258 122.47 57.973 122.324 57.8418L122.296 57.8146L122.274 57.7822C122.196 57.6715 122.181 57.5064 122.181 57.3735C122.181 57.2407 122.201 57.1079 122.22 56.9767C122.255 56.7332 122.299 56.4897 122.348 56.2428L123.011 53.0804L125.759 53.077C125.935 53.077 126.183 53.077 126.347 53.1315L126.381 53.1417L126.412 53.1587C126.547 53.2371 126.669 53.346 126.78 53.455C126.961 53.6304 127.179 53.7411 127.433 53.7411C127.844 53.7411 128.17 53.5572 128.333 53.1689C128.502 52.7687 128.606 52.3226 128.698 51.8985V51.8951L128.705 51.9002ZM100.363 58.1705L100.127 58.2999C99.9694 58.3851 99.8037 58.4787 99.6633 58.5911L99.6549 58.5979C99.5077 58.7257 99.4316 58.9028 99.3928 59.0901L99.3877 59.1139V59.1395C99.3877 59.7917 99.8527 60.054 100.451 60.0523L104.166 60.0472C104.777 60.0472 105.348 59.8428 105.501 59.1872L105.507 59.1599V59.131C105.507 58.7904 105.343 58.5128 105.075 58.3119L105.068 58.3067L104.723 58.0837L104.76 57.8589C104.787 57.6937 104.826 57.5319 104.861 57.3667L105.555 54.0477L107.22 53.7803L107.337 53.9932C107.628 54.5279 107.848 55.1205 108.046 55.6961C108.289 56.3994 108.497 57.176 108.524 57.9236L108.531 58.1194L108.369 58.2267C108.369 58.2267 108.355 58.2352 108.35 58.2386C108.189 58.3374 108.029 58.4396 107.871 58.5435L107.861 58.5503C107.655 58.6763 107.516 58.8602 107.471 59.1003L107.466 59.1242V59.148C107.466 59.4733 107.576 59.7764 107.892 59.9092L107.902 59.9126C108.162 60.0165 108.463 60.0421 108.741 60.0421L112.559 60.0369C113.112 60.0369 113.787 59.9024 113.92 59.2672L113.925 59.2417V59.2161C113.925 59.0492 113.903 58.8585 113.803 58.7206C113.722 58.6082 113.609 58.5145 113.497 58.4328L113.491 58.4277L113.482 58.4225C113.355 58.3442 113.186 58.225 113.114 58.0939L113.108 58.0854L113.105 58.0768C113.01 57.881 112.958 57.6119 112.911 57.3974V57.3854C112.647 55.9465 112.241 54.3746 111.516 53.0957L111.336 52.779L111.661 52.6155C111.901 52.4963 112.134 52.3651 112.363 52.2255C112.779 51.9701 113.171 51.6772 113.528 51.3451C113.88 51.0181 114.186 50.6469 114.438 50.2365C114.688 49.8312 114.867 49.3901 114.96 48.9286V48.9167C115.004 48.6885 115.024 48.4569 115.024 48.2253C115.024 47.7212 114.911 47.241 114.664 46.8016C114.419 46.3639 114.067 46.0302 113.633 45.7866C112.763 45.2979 111.377 45.2298 110.396 45.2349L103.446 45.2621C102.842 45.2638 102.269 45.4614 102.125 46.1153L102.12 46.1409V46.1681C102.12 46.5121 102.284 46.7863 102.552 46.9923L102.562 47.0008L102.897 47.2035L102.881 47.4164C102.869 47.5867 102.822 47.7621 102.78 47.9273V47.9341L100.82 57.2765C100.779 57.4876 100.74 57.7124 100.664 57.9134L100.632 57.9951L100.566 58.053C100.512 58.099 100.439 58.1382 100.374 58.1671L100.363 58.1705ZM105.947 52.0825L106.679 48.5965C106.75 48.2832 106.914 47.6514 107.154 47.4487C107.488 47.1694 108.096 47.1235 108.517 47.1235C109.064 47.1235 109.657 47.2086 110.122 47.5203C110.523 47.7893 110.668 48.1912 110.67 48.6612C110.67 48.8451 110.624 49.0444 110.589 49.2249C110.491 49.7102 110.279 50.1394 109.941 50.5021C109.589 50.8802 109.175 51.1765 108.708 51.3928C108.22 51.621 107.707 51.7895 107.18 51.9019C106.93 51.9547 106.678 51.9973 106.424 52.028L105.949 52.0859L105.947 52.0825ZM85.9561 46.1426V46.1681C85.9561 46.3401 85.9763 46.5394 86.0795 46.6824C86.1641 46.7999 86.2909 46.9055 86.4042 46.994L86.4109 46.9991L86.7593 47.2342L86.7305 47.447C86.7204 47.522 86.7035 47.5952 86.6866 47.6684C86.6663 47.757 86.6409 47.8489 86.6274 47.9392V47.9494L84.6557 57.2867V57.2935C84.6168 57.5064 84.5745 57.7329 84.495 57.9338L84.4646 58.0104L84.4037 58.0649C84.3479 58.1143 84.2752 58.1535 84.2076 58.1841L84.1974 58.1875L83.9607 58.317C83.8017 58.3987 83.6326 58.4907 83.494 58.6048L83.4855 58.6116C83.3418 58.741 83.2674 58.9198 83.2285 59.1071L83.2234 59.131V59.1565C83.2234 59.8087 83.6884 60.071 84.287 60.0693L87.9278 60.0642C88.2778 60.0642 88.6684 60.0438 89.0032 59.9382C89.333 59.8343 89.5477 59.5993 89.6289 59.2621L89.6357 59.2332V59.2042C89.6357 59.0203 89.6171 58.8006 89.5122 58.6439C89.4243 58.5128 89.2873 58.4191 89.1504 58.3476L89.1436 58.3442L89.1368 58.3408C89.0354 58.2965 88.9322 58.254 88.8341 58.1995L88.6532 58.1007V57.8946C88.6532 57.7414 88.6583 57.5881 88.6684 57.4348V57.411L89.2535 54.6624L89.5122 54.6454C91.188 54.5381 93.0532 54.2776 94.5937 53.5811C95.5187 53.1621 96.3676 52.6053 97.0896 51.8866C97.7762 51.202 98.2496 50.3863 98.4475 49.431C98.5033 49.1585 98.527 48.8775 98.527 48.5982C98.527 47.43 97.9791 46.5513 96.9865 45.9638C96.4825 45.6657 95.9161 45.492 95.3411 45.4001C94.6732 45.2928 93.9934 45.2553 93.3187 45.2553L87.3021 45.2621C86.6984 45.2621 86.0998 45.4563 85.9611 46.117L85.9561 46.1426ZM89.6746 52.6342L90.5674 48.416V48.4041C90.6317 48.0907 90.7517 47.602 91.0054 47.3976L91.0088 47.3942C91.2878 47.1558 91.7934 47.1149 92.1502 47.1149C92.6879 47.1149 93.2595 47.2154 93.6856 47.5713C94.083 47.9034 94.2267 48.3547 94.2267 48.8605C94.2267 49.0529 94.1878 49.2573 94.1557 49.448V49.4565L94.1523 49.465C94.0103 50.119 93.7025 50.669 93.2071 51.1152C92.6896 51.5801 92.0927 51.9224 91.4417 52.1574C91.0341 52.3038 90.6181 52.4247 90.1954 52.5184L89.6746 52.6342ZM79.608 58.0019C79.5032 57.8521 79.4203 57.6443 79.3459 57.474L78.9739 56.5919L76.4594 52.0944L79.7585 48.7362L80.8087 47.5901C80.8949 47.4998 80.9879 47.3976 81.091 47.3278C81.2077 47.2495 81.3329 47.1865 81.4563 47.1218C81.6575 47.0179 81.8638 46.9089 82.0482 46.7761L82.0566 46.7692C82.2359 46.6279 82.3356 46.427 82.3813 46.2056L82.3864 46.18V46.1545C82.3864 45.8071 82.246 45.5091 81.8977 45.3916C81.6237 45.2928 81.2973 45.2707 81.0082 45.2707L78.7947 45.2741C78.2671 45.2741 77.7023 45.4273 77.5771 46.0148L77.5721 46.0404V46.0659C77.5721 46.2362 77.6059 46.4082 77.7023 46.5496C77.7851 46.6705 77.9001 46.7778 78.0067 46.8697L78.0168 46.8782C78.0625 46.9174 78.1081 46.9549 78.1504 46.9991L78.3246 47.178L78.2096 47.3993C78.0202 47.7655 77.5602 48.2695 77.2728 48.5795C76.7756 49.1142 76.27 49.6421 75.7542 50.1598L75.4346 50.48L75.2131 50.0849C75.0998 49.8839 74.9865 49.6813 74.8732 49.4803C74.6027 48.9984 74.3473 48.508 74.1123 48.0073C74.0125 47.7944 73.9077 47.5577 73.84 47.3329L73.7707 47.1013L73.9635 46.9566C74.0734 46.8731 74.1833 46.788 74.2915 46.6994C74.4505 46.57 74.5553 46.3997 74.6027 46.1988L74.6094 46.1715V46.1426C74.6094 45.8633 74.5317 45.5772 74.2577 45.4427C74.0582 45.3405 73.791 45.2996 73.5695 45.2792H73.5576L69.3487 45.2826L69.3301 45.286C68.855 45.3609 68.4593 45.601 68.3646 46.1034L68.3595 46.1255V46.1494C68.3595 46.3622 68.3967 46.5887 68.5387 46.7556C68.6554 46.8919 68.8161 47.0009 68.97 47.0894C69.063 47.1422 69.1695 47.2154 69.2287 47.3057L69.2371 47.3193L69.2422 47.3261C69.3251 47.4436 69.3826 47.5952 69.4333 47.7297C69.7985 48.697 70.1925 49.654 70.6407 50.5839C70.9653 51.2548 71.3323 51.9053 71.7432 52.5252L71.8954 52.7534L67.8759 57.0483L67.8691 57.0551C67.6273 57.3293 67.3872 57.6102 67.1149 57.8538L67.1065 57.8623C66.9272 58.0343 66.6854 58.1637 66.4588 58.2625C66.2542 58.351 66.0361 58.4532 65.8568 58.5877C65.6691 58.7274 65.5592 58.9232 65.5186 59.1531L65.5152 59.1752V59.1974C65.5152 59.4988 65.6032 59.7985 65.8889 59.9416C66.1223 60.0591 66.3996 60.0914 66.6567 60.0914L69.6108 60.088L69.6311 60.0846C70.0657 60.0063 70.4141 59.7713 70.5121 59.32L70.5172 59.2945V59.2672C70.5172 59.1191 70.4834 58.976 70.4141 58.8449L70.409 58.8347C70.338 58.7137 70.25 58.6031 70.157 58.4975C70.0928 58.4242 70.0302 58.3459 69.9829 58.2591L69.9068 58.1194L69.9626 57.9713C70.0708 57.6852 70.3819 57.2731 70.573 57.0244C71.0093 56.4573 71.4709 55.9124 71.9495 55.3828C72.1744 55.1341 72.3993 54.8872 72.6276 54.6437L72.937 54.315L73.1704 54.7016C73.2905 54.9008 73.4071 55.1035 73.5204 55.3061C73.8654 55.9175 74.1918 56.5391 74.4894 57.176C74.6128 57.4382 74.7396 57.7141 74.8327 57.9883L74.924 58.2591L74.6788 58.4004C74.5587 58.4685 74.437 58.54 74.3254 58.6218C74.1613 58.741 74.0785 58.9215 74.0396 59.1173L74.0345 59.1412V59.1667C74.0345 59.5857 74.2256 59.916 74.623 60.0642L74.6652 60.0795L79.0602 60.0744C79.3612 60.0744 79.6808 60.0455 79.9665 59.9467C80.2895 59.8343 80.4772 59.5823 80.5533 59.2536L80.5601 59.2263V59.1974C80.5601 58.8091 80.3927 58.4992 80.0443 58.3204L80.0342 58.3153C79.9124 58.2471 79.7535 58.1586 79.6588 58.0581L79.6233 58.0206L79.6114 57.9985L79.608 58.0019ZM64.597 45.63L64.5852 45.6146C64.3484 45.3047 63.7329 45.2911 63.3812 45.2911L54.2853 45.3013C53.6799 45.3013 53.0881 45.4954 52.9443 46.1545L52.9393 46.18V46.2073C52.9393 46.3793 52.9612 46.5785 53.0644 46.7233C53.1489 46.8408 53.2775 46.9464 53.3908 47.0332L53.3958 47.0366L53.7442 47.2716L53.7154 47.4845C53.7053 47.5594 53.6884 47.6326 53.6698 47.7059C53.6495 47.7944 53.6241 47.8864 53.6106 47.9766V47.9869L51.627 57.3275V57.3327C51.5898 57.5438 51.5509 57.7703 51.4765 57.9713L51.4478 58.0479L51.3886 58.1041C51.3328 58.1569 51.255 58.2012 51.184 58.2318L50.9405 58.3493H50.9371C50.7782 58.4362 50.604 58.5349 50.4704 58.6576C50.3267 58.787 50.2506 58.9624 50.2117 59.1497L50.2066 59.1735V59.1991C50.2066 59.8513 50.6716 60.1136 51.2702 60.1119L60.7838 60.1C61.0967 60.1 61.5465 60.0795 61.8204 59.9211L61.8289 59.916C62.1045 59.7474 62.3345 59.3524 62.4816 59.0697L62.485 59.0629C62.786 58.5179 63.1631 57.8333 63.2983 57.2254L63.3051 57.1981V57.1709C63.3051 56.9308 63.2476 56.6958 63.0751 56.5221L63.0701 56.5169C62.9145 56.3552 62.7099 56.2836 62.4883 56.2836C62.211 56.2836 61.954 56.3875 61.7342 56.5459L61.7257 56.5527C61.4247 56.7741 61.1508 57.0346 60.8734 57.285C60.6113 57.5217 60.3171 57.738 59.9958 57.8878C59.732 58.0104 59.453 58.1058 59.1638 58.1416C58.7969 58.1875 58.4249 58.2012 58.0545 58.1995C57.5337 58.1978 57.0078 58.1926 56.4904 58.1313C56.2976 58.1092 56.0152 58.0564 55.8698 57.9253L55.8393 57.898L55.8157 57.8657C55.7396 57.755 55.7226 57.5898 55.7226 57.457C55.7226 57.3241 55.7429 57.1913 55.7615 57.0602C55.7971 56.8167 55.841 56.5731 55.8901 56.3262L56.5529 53.1638L59.3008 53.1604C59.4767 53.1604 59.7252 53.1604 59.8893 53.2149L59.9214 53.2251L59.9518 53.2422C60.0871 53.3205 60.2089 53.4295 60.3205 53.5385C60.5014 53.7139 60.7196 53.8246 60.9749 53.8246C61.3858 53.8246 61.7105 53.6407 61.8745 53.2524C62.0436 52.8522 62.1501 52.4077 62.2398 51.9837V51.9735C62.2837 51.7197 62.3395 51.4387 62.3378 51.1816C62.3378 50.7048 62.1163 50.3318 61.6073 50.3335C61.3418 50.3335 61.0967 50.4681 60.8903 50.6264C60.728 50.7507 60.5555 50.8734 60.3712 50.9619C60.1818 51.0522 59.8436 51.0624 59.6306 51.0624L56.996 51.0658L57.6842 47.7178C57.7299 47.5066 57.9565 47.3908 58.1374 47.3159L58.1509 47.3108L58.1645 47.3057C58.5821 47.1711 59.2518 47.1797 59.6999 47.1797C60.3019 47.1797 60.9597 47.1848 61.5498 47.3108H61.5617L61.5735 47.3159C61.9624 47.4266 62.255 47.665 62.4714 48.0056C62.5797 48.1742 62.7031 48.37 62.8485 48.508L62.8553 48.5148C63.0193 48.6646 63.2408 48.7106 63.4573 48.7106C64.0999 48.7106 64.4448 48.2713 64.5717 47.6735C64.668 47.2171 64.7086 46.7505 64.7086 46.2856C64.7086 46.0898 64.6985 45.8207 64.6038 45.6453L64.5936 45.6266L64.597 45.63Z" fill="black" stroke="#1D1D1B" stroke-width="0.22" stroke-miterlimit="22.93"/>
<path fill-rule="evenodd" clip-rule="evenodd" d="M135.545 69.4611C135.545 69.6365 135.484 69.7881 135.36 69.9175C135.237 70.0452 135.086 70.1082 134.911 70.1082C134.735 70.1082 134.584 70.0452 134.457 69.9175C134.332 69.7915 134.268 69.6399 134.268 69.4611C134.268 69.2823 134.33 69.1324 134.457 69.0064C134.582 68.8804 134.733 68.8191 134.911 68.8191C135.088 68.8191 135.237 68.8804 135.36 69.0064C135.482 69.1324 135.545 69.2823 135.545 69.4594V69.4611ZM134.784 68.2384L135.354 64.4408H136.51L135.467 68.2384H134.784ZM133.994 69.3215C133.972 69.5922 133.879 69.7983 133.712 69.9413C133.544 70.0827 133.341 70.1542 133.105 70.1542C132.868 70.1542 132.667 70.0776 132.499 69.9243C132.384 69.8187 132.31 69.6672 132.274 69.4696C132.087 69.7336 131.855 69.9277 131.578 70.0503C131.439 70.1133 131.307 70.1627 131.182 70.1968C131.172 70.8013 131.03 71.273 130.754 71.6153C130.48 71.9576 130.117 72.1296 129.663 72.1296C129.415 72.1296 129.203 72.0649 129.028 71.9355C128.853 71.8078 128.765 71.6085 128.765 71.3429C128.765 70.832 129.186 70.4352 130.025 70.1525C130.01 69.5803 129.816 69.2942 129.449 69.2942H129.2L129.303 68.8089H129.538C129.824 68.8089 130.059 68.6743 130.245 68.4053C130.429 68.1362 130.524 67.8075 130.524 67.4176C130.524 66.9544 130.367 66.721 130.052 66.721C129.817 66.721 129.486 66.9322 129.06 67.3579C128.945 67.4738 128.823 67.5878 128.694 67.7019H128.684C128.622 68.4393 128.41 69.0285 128.052 69.4713C127.693 69.9141 127.264 70.1355 126.765 70.1355C126.148 70.1355 125.75 69.9056 125.571 69.4492C125.51 69.2874 125.478 69.1103 125.478 68.9144C125.478 68.7186 125.493 68.5211 125.527 68.3201C125.559 68.1192 125.612 67.9114 125.681 67.6985C125.842 67.2149 126.072 66.8249 126.376 66.5252C126.738 66.1659 127.172 65.9871 127.68 65.9871C128.346 65.9871 128.691 66.406 128.711 67.2404L129.115 66.7824C129.579 66.2527 130.057 65.9871 130.551 65.9871C130.896 65.9871 131.18 66.1012 131.405 66.326C131.628 66.5508 131.742 66.8828 131.742 67.3222C131.742 67.7616 131.572 68.1686 131.236 68.5398C131.065 68.7288 130.913 68.86 130.776 68.9349C130.641 69.0081 130.546 69.0507 130.494 69.0609C130.622 69.1052 130.752 69.1971 130.883 69.3368C131.014 69.4764 131.104 69.6535 131.153 69.8698C131.463 69.7761 131.681 69.6654 131.809 69.5377C132.027 69.3249 132.196 69.0319 132.317 68.6641V68.6539L132.864 66.0569H134.023L133.446 68.8072C133.424 68.9042 133.414 69.0013 133.414 69.0967C133.414 69.192 133.441 69.2601 133.493 69.3044C133.546 69.347 133.622 69.3691 133.722 69.3691C133.822 69.3691 133.914 69.3521 133.999 69.318L133.994 69.3215ZM134.3 64.9857C134.3 65.1645 134.237 65.3161 134.111 65.4387C133.986 65.5596 133.832 65.6226 133.656 65.6226C133.48 65.6226 133.329 65.5613 133.206 65.437C133.083 65.3127 133.022 65.1628 133.022 64.9857C133.022 64.8086 133.083 64.6571 133.206 64.5293C133.326 64.4016 133.478 64.3386 133.657 64.3386C133.837 64.3386 133.989 64.4016 134.114 64.5276C134.239 64.6537 134.302 64.8069 134.302 64.9857H134.3ZM130 70.5459C129.471 70.7332 129.207 70.9631 129.207 71.2339C129.207 71.3088 129.229 71.3701 129.274 71.4212C129.318 71.4723 129.379 71.4978 129.455 71.4978C129.591 71.4978 129.709 71.4042 129.807 71.2168C129.905 71.0312 129.971 70.8064 130.002 70.5459H130ZM128.015 67.7275C127.869 67.6917 127.798 67.5708 127.798 67.3682C127.798 67.1655 127.883 67.0259 128.05 66.9492C128.04 66.7772 128.013 66.6563 127.969 66.5865C127.927 66.515 127.842 66.4792 127.715 66.4792C127.468 66.4792 127.235 66.7534 127.01 67.3C126.785 67.8484 126.672 68.3337 126.672 68.7561C126.672 69.0166 126.694 69.1818 126.741 69.2516C126.789 69.3197 126.839 69.3657 126.892 69.3845C126.944 69.4032 127.014 69.4117 127.103 69.4117C127.287 69.4117 127.467 69.2499 127.648 68.9264C127.829 68.6028 127.95 68.2026 128.013 67.7292L128.015 67.7275ZM124.169 67.2728C124.169 66.8249 124.034 66.6018 123.765 66.6018C123.674 66.6018 123.577 66.6359 123.478 66.7023C123.378 66.767 123.288 66.8675 123.212 67.002L122.739 69.267C122.786 69.3913 122.899 69.4526 123.082 69.4526C123.265 69.4526 123.427 69.3759 123.571 69.2227C123.851 68.9213 124.031 68.4921 124.112 67.9352C124.151 67.6866 124.171 67.4669 124.171 67.2745L124.169 67.2728ZM122.607 69.8647L122.191 71.8367L120.978 72.1296L121.949 67.5214C121.748 67.6015 121.521 67.6628 121.273 67.7036C121.21 68.441 120.999 69.0302 120.64 69.473C120.282 69.9158 119.852 70.1372 119.353 70.1372C118.736 70.1372 118.339 69.9073 118.159 69.4509V69.4475C117.975 69.7148 117.75 69.909 117.481 70.0316C117.348 70.0929 117.219 70.1389 117.096 70.1712L116.976 70.7553C116.873 71.2747 116.67 71.6494 116.364 71.8793C116.139 72.0462 115.88 72.1313 115.589 72.1313C115.298 72.1313 115.067 72.0666 114.891 71.9372C114.715 71.8095 114.629 71.6017 114.629 71.3173C114.629 70.8252 115.065 70.4318 115.939 70.1389L116.037 69.7131C115.757 70.0077 115.435 70.1559 115.073 70.1559C114.586 70.1559 114.258 69.926 114.091 69.4645C114.03 69.2993 114.001 69.1103 114.001 68.8974C114.001 68.6846 114.02 68.4734 114.055 68.2605C114.091 68.0493 114.148 67.8365 114.224 67.627C114.392 67.1638 114.632 66.7806 114.943 66.4775C115.254 66.1744 115.63 66.0228 116.069 66.0228C116.299 66.0228 116.465 66.0603 116.568 66.1386C116.67 66.217 116.72 66.314 116.72 66.4332V66.4809L116.807 66.062H117.963L117.167 69.8153C117.41 69.7336 117.612 69.6092 117.769 69.4424C117.877 69.3266 117.977 69.1665 118.065 68.9621C118.065 68.9485 118.065 68.9332 118.065 68.9196C118.065 68.7254 118.082 68.5262 118.114 68.3252C118.146 68.1243 118.198 67.9165 118.268 67.7036C118.428 67.22 118.658 66.83 118.963 66.5303C119.325 66.171 119.759 65.9922 120.266 65.9922C120.953 65.9922 121.298 66.423 121.298 67.2847V67.2932C121.325 67.2983 121.369 67.3017 121.432 67.3017C121.575 67.3017 121.76 67.2558 121.986 67.1621L122.027 67.1451L122.318 65.764H123.474L123.346 66.3719C123.613 66.142 123.924 66.0245 124.283 66.0245C124.746 66.0245 125.047 66.2476 125.189 66.6955C125.238 66.859 125.263 67.0463 125.263 67.2575C125.263 67.4686 125.252 67.6815 125.226 67.8944C125.202 68.1055 125.158 68.3184 125.099 68.5313C125.038 68.7424 124.961 68.9468 124.863 69.1409C124.764 69.3368 124.641 69.5088 124.496 69.6603C124.35 69.8119 124.176 69.9328 123.976 70.0231C123.775 70.1116 123.527 70.1559 123.226 70.1559C122.925 70.1559 122.72 70.0605 122.603 69.8664L122.607 69.8647ZM120.606 67.7258C120.461 67.69 120.39 67.5691 120.39 67.3665C120.39 67.1638 120.474 67.0242 120.642 66.9475C120.632 66.7755 120.605 66.6546 120.561 66.5848C120.518 66.5133 120.434 66.4775 120.307 66.4775C120.06 66.4775 119.827 66.7517 119.602 67.2983C119.377 67.8467 119.264 68.332 119.264 68.7544C119.264 69.0149 119.286 69.1801 119.333 69.2499C119.38 69.318 119.431 69.364 119.484 69.3828C119.536 69.4015 119.605 69.41 119.695 69.41C119.879 69.41 120.058 69.2482 120.239 68.9247C120.42 68.6011 120.542 68.2009 120.605 67.7275L120.606 67.7258ZM115.858 70.5442C115.334 70.7349 115.073 70.9631 115.073 71.2322C115.073 71.3394 115.124 71.4212 115.226 71.474C115.259 71.4893 115.31 71.4961 115.374 71.4961C115.439 71.4961 115.516 71.4382 115.603 71.3207C115.689 71.2032 115.758 71.0227 115.812 70.7775L115.86 70.5442H115.858ZM116.648 66.8215C116.648 66.7023 116.592 66.6121 116.479 66.5576C116.436 66.5354 116.382 66.5218 116.316 66.5218C116.147 66.5218 115.992 66.6018 115.85 66.7619C115.51 67.1502 115.297 67.7053 115.209 68.4308C115.195 68.5415 115.19 68.659 115.19 68.7833C115.19 69.0217 115.239 69.1886 115.339 69.2857C115.396 69.3436 115.467 69.3725 115.55 69.3725C115.699 69.3725 115.838 69.3163 115.966 69.2005C116.093 69.0864 116.184 68.9315 116.237 68.739L116.646 66.8215H116.648ZM110.332 69.41C110.474 69.41 110.606 69.3334 110.727 69.1767C110.971 68.8565 111.137 68.4019 111.226 67.8143C111.274 67.5351 111.297 67.2915 111.297 67.0838C111.297 66.876 111.277 66.7227 111.236 66.6257C111.194 66.5286 111.108 66.4792 110.976 66.4792C110.722 66.4792 110.484 66.7534 110.257 67.3C110.032 67.8484 109.919 68.3337 109.919 68.7561C109.919 69.0166 109.941 69.1818 109.989 69.2516C110.036 69.3197 110.087 69.3657 110.139 69.3845C110.191 69.4032 110.256 69.4117 110.33 69.4117L110.332 69.41ZM110.085 70.1372C109.632 70.1372 109.292 70.0367 109.064 69.834C108.95 69.7319 108.866 69.6058 108.808 69.456C108.556 69.8596 108.255 70.0878 107.91 70.1372C107.826 70.1474 107.723 70.1525 107.599 70.1525C107.476 70.1525 107.356 70.1269 107.236 70.0742C106.901 69.9311 106.733 69.6535 106.733 69.2397C106.733 69.0183 106.794 68.6658 106.914 68.1805C107.034 67.6968 107.095 67.3614 107.095 67.1774C107.095 66.9016 106.997 66.7619 106.804 66.7619C106.612 66.7619 106.437 66.9169 106.285 67.2251C106.241 67.312 106.204 67.4073 106.175 67.5095L105.631 70.1065H104.474L105.325 66.0603H106.483L106.395 66.4792C106.656 66.1795 106.97 66.0296 107.332 66.0296C107.589 66.0296 107.802 66.0995 107.973 66.2425C108.144 66.3839 108.228 66.595 108.228 66.876C108.228 67.157 108.184 67.4703 108.096 67.8246L107.904 68.6062C107.861 68.7782 107.841 68.9162 107.841 69.0251C107.841 69.2567 107.939 69.3725 108.135 69.3725C108.316 69.3725 108.455 69.3146 108.551 69.1988C108.61 69.129 108.668 69.0371 108.724 68.9213C108.724 68.5177 108.774 68.16 108.876 67.8467C109.287 66.6087 109.97 65.9888 110.925 65.9888C111.612 65.9888 111.957 66.4128 111.957 67.2575C111.957 68.1021 111.774 68.7935 111.412 69.3317C111.24 69.5837 111.035 69.783 110.797 69.9243C110.558 70.0673 110.322 70.1372 110.087 70.1372H110.085ZM100.45 69.0149C100.45 69.2516 100.531 69.3708 100.69 69.3708C100.972 69.3708 101.187 69.1324 101.332 68.6556L101.878 66.0586H103.035L102.459 68.8089C102.437 68.9008 102.423 68.9962 102.423 69.0933C102.423 69.2789 102.533 69.3691 102.753 69.3691C102.81 69.3691 102.898 69.3521 103.02 69.318C103.003 69.611 102.903 69.8221 102.724 69.955C102.545 70.0861 102.344 70.1525 102.122 70.1525C101.9 70.1525 101.721 70.0861 101.584 69.9532C101.447 69.8204 101.368 69.6314 101.341 69.3862C101.028 69.8971 100.629 70.1525 100.145 70.1525C99.9034 70.1525 99.7005 70.0759 99.5331 69.9226C99.4198 69.817 99.3437 69.6672 99.3082 69.4713C99.1289 69.7251 98.9091 69.9107 98.6504 70.0282C98.5168 70.0895 98.3883 70.1355 98.2648 70.1678L98.1448 70.7519C98.0416 71.2713 97.8387 71.646 97.5326 71.8759C97.3077 72.0428 97.049 72.1279 96.7581 72.1279C96.4673 72.1279 96.2356 72.0632 96.0598 71.9338C95.8839 71.8061 95.7976 71.5983 95.7976 71.3139C95.7976 70.8218 96.2339 70.4284 97.1082 70.1355L97.2063 69.7097C96.9255 70.0043 96.6043 70.1525 96.2424 70.1525C95.7554 70.1525 95.4273 69.9226 95.2599 69.4611C95.2531 69.4424 95.2464 69.4236 95.2413 69.4049C95.0435 69.6808 94.8 69.8868 94.5108 70.0265C94.3299 70.1116 94.1337 70.1525 93.9257 70.1525C93.5605 70.1525 93.2713 70.0367 93.065 69.8034C92.857 69.5701 92.7522 69.2584 92.7522 68.8685C92.7522 68.5926 92.7741 68.3559 92.8198 68.1617H92.3598L91.9591 70.1048H90.8802L91.2911 68.1617H90.8312C90.6486 69.049 90.2968 69.6552 89.776 69.9788C89.5866 70.0946 89.3871 70.1525 89.1808 70.1525C88.5906 70.1525 88.2947 69.9073 88.2947 69.4168C88.2947 69.2125 88.3353 69.0609 88.4131 68.9621C88.4942 68.8651 88.5838 68.8157 88.687 68.8157C88.7901 68.8157 88.8899 68.848 88.9846 68.9144C88.9305 69.1069 88.9018 69.267 88.9018 69.393C88.9018 69.6144 88.9626 69.7251 89.0861 69.7251C89.1909 69.7251 89.2822 69.6706 89.36 69.5599C89.59 69.2346 89.7625 68.7816 89.8791 68.1958C89.9316 67.9216 89.9569 67.6866 89.9569 67.4874C89.9569 67.1502 89.9214 66.9152 89.8504 66.7841C89.7777 66.6512 89.6627 66.5848 89.5054 66.5848C89.3482 66.5848 89.1419 66.6563 88.8831 66.8028C88.6244 66.9475 88.342 67.1962 88.0343 67.5487C88.0985 67.7411 88.1323 67.9455 88.1323 68.1617C88.1323 68.378 88.0901 68.6079 88.0021 68.8548C87.9159 69.1001 87.7908 69.318 87.625 69.5088C87.2632 69.9277 86.7948 70.1355 86.2164 70.1355C85.7751 70.1355 85.442 70.0043 85.2188 69.7404C85.1274 69.6331 85.0547 69.5122 85.0006 69.3759C84.6759 69.8919 84.2498 70.1508 83.7205 70.1508C83.247 70.1508 82.9832 69.9039 82.9308 69.4083C82.5808 69.9039 82.1716 70.1508 81.7048 70.1508C81.2381 70.1508 80.9202 69.9209 80.7528 69.4594C80.6919 69.2942 80.6632 69.1052 80.6632 68.8923C80.6632 68.6794 80.6818 68.4683 80.7173 68.2554C80.7528 68.0442 80.8103 67.8314 80.8864 67.6219C81.0538 67.1587 81.2939 66.7755 81.6051 66.4724C81.9162 66.1693 82.2916 66.0177 82.7313 66.0177C82.9613 66.0177 83.127 66.0552 83.2301 66.1335C83.3316 66.2119 83.3823 66.3089 83.3823 66.4281V66.4877L83.4686 66.0569H84.6252L84.0486 68.8072C84.0266 68.8991 84.0131 68.986 84.0131 69.0677C84.0131 69.2993 84.123 69.4151 84.3428 69.4151C84.5626 69.4151 84.752 69.255 84.8924 68.9366C84.8839 68.8582 84.8789 68.7765 84.8789 68.6914C84.8789 68.2537 84.9871 67.6764 85.2035 66.9544C85.4386 66.1693 85.7345 65.5085 86.0862 64.9704C86.5005 64.3403 86.9351 64.027 87.3934 64.027C87.6436 64.027 87.8499 64.1121 88.0106 64.2824C88.1729 64.4527 88.2524 64.7456 88.2524 65.1663C88.2524 65.5869 88.107 66.0841 87.8161 66.6597L87.5963 67.0787C87.691 67.1263 87.7705 67.1825 87.8364 67.249C88.4012 66.5661 88.9305 66.1642 89.426 66.0433C89.5697 66.0075 89.7134 65.9888 89.8572 65.9888C90.1565 65.9888 90.4084 66.1046 90.6181 66.3362C90.8244 66.5763 90.9293 66.8879 90.9293 67.2728C90.9293 67.3988 90.9208 67.5351 90.9056 67.6798H91.3875L91.7257 66.0603H92.8046L92.4664 67.6798H92.9145C93.1495 66.9033 93.503 66.3856 93.9697 66.1318C94.1455 66.0365 94.3282 65.9888 94.5193 65.9888C94.849 65.9888 95.0773 66.0586 95.2024 66.1999C95.3276 66.3396 95.3918 66.515 95.3918 66.7227C95.3918 66.9305 95.3512 67.0804 95.2718 67.1774C95.1923 67.2728 95.0976 67.3222 94.9894 67.3222C94.8811 67.3222 94.7864 67.2898 94.7019 67.2268C94.7543 67.0429 94.7814 66.8828 94.7814 66.75C94.7814 66.5286 94.7205 66.4179 94.597 66.4179C94.3958 66.4179 94.2013 66.6734 94.012 67.1825C93.8243 67.6917 93.7312 68.2009 93.7312 68.7101C93.7312 69.0047 93.7854 69.2193 93.8936 69.3555C94.0018 69.49 94.1472 69.5599 94.3282 69.5599C94.6309 69.5599 94.8862 69.393 95.0891 69.0575C95.1162 69.0149 95.1432 68.9672 95.1686 68.9161V68.8957C95.1686 68.6845 95.1872 68.4717 95.2227 68.2588C95.2582 68.0476 95.3157 67.8348 95.3918 67.6253C95.5592 67.1621 95.7993 66.7789 96.1105 66.4758C96.4216 66.1727 96.797 66.0211 97.2367 66.0211C97.4667 66.0211 97.6324 66.0586 97.7355 66.1369C97.837 66.2153 97.8877 66.3123 97.8877 66.4315V66.4792L97.974 66.0603H99.1306L98.3342 69.8136C98.5777 69.7319 98.7789 69.6076 98.9361 69.4407C99.0934 69.2738 99.2304 69.0115 99.3454 68.6573L99.8899 66.0603H101.048L100.472 68.8106C100.455 68.8787 100.448 68.9485 100.448 69.0149H100.45ZM97.0253 70.5442C96.5011 70.7349 96.2407 70.9631 96.2407 71.2322C96.2407 71.3394 96.2914 71.4212 96.3929 71.474C96.4267 71.4893 96.4774 71.4961 96.5417 71.4961C96.606 71.4961 96.6837 71.4382 96.77 71.3207C96.8562 71.2032 96.9256 71.0227 96.9797 70.7775L97.027 70.5442H97.0253ZM97.815 66.8215C97.815 66.7023 97.7592 66.6121 97.6459 66.5576C97.6036 66.5354 97.5495 66.5218 97.4836 66.5218C97.3145 66.5218 97.1589 66.6018 97.0169 66.7619C96.677 67.1502 96.4639 67.7053 96.376 68.4308C96.3624 68.5415 96.3574 68.659 96.3574 68.7833C96.3574 69.0217 96.4064 69.1886 96.5062 69.2857C96.5637 69.3436 96.6347 69.3725 96.7176 69.3725C96.8664 69.3725 97.005 69.3163 97.1335 69.2005C97.2604 69.0864 97.3517 68.9315 97.4041 68.739L97.8133 66.8215H97.815ZM86.0812 68.7067C86.0812 69.1767 86.2452 69.41 86.5716 69.41C86.8201 69.41 87.0197 69.2925 87.1719 69.0592C87.324 68.8242 87.4001 68.5858 87.4001 68.3423C87.4001 68.0987 87.3765 67.9301 87.3291 67.8331C87.2463 67.8654 87.1448 67.8825 87.0281 67.8825C86.9114 67.8825 86.8134 67.8467 86.7373 67.7769C86.6612 67.7071 86.624 67.6185 86.624 67.5146C86.624 67.3358 86.673 67.2081 86.7711 67.1332C86.8692 67.0582 87.0061 67.014 87.1854 67.0003C87.4306 66.5525 87.6014 66.0824 87.6994 65.5852C87.7299 65.4166 87.7468 65.2531 87.7468 65.0947C87.7468 64.9364 87.7248 64.824 87.6842 64.7592C87.642 64.6945 87.5777 64.6622 87.4881 64.6622C87.324 64.6622 87.1516 64.8342 86.9706 65.1765C86.6713 65.7453 86.4177 66.5916 86.2046 67.7139C86.1251 68.143 86.0845 68.4751 86.0845 68.7101L86.0812 68.7067ZM83.3113 66.8283C83.3113 66.7789 83.2876 66.7142 83.242 66.6376C83.1963 66.561 83.0982 66.5218 82.9494 66.5218C82.8006 66.5218 82.6552 66.6018 82.5148 66.7619C82.1749 67.1502 81.9619 67.7053 81.8739 68.4308C81.8604 68.5415 81.8553 68.659 81.8553 68.7833C81.8553 69.0217 81.9044 69.1886 82.0042 69.2857C82.0617 69.3436 82.1344 69.3725 82.2206 69.3725C82.3796 69.3725 82.5267 69.3095 82.6552 69.1818C82.7871 69.0541 82.8767 68.8804 82.9258 68.659L83.3113 66.8317V66.8283ZM77.2761 69.2074C77.2761 69.5735 77.5095 69.7557 77.9745 69.7557C78.1199 69.7557 78.2637 69.7063 78.4057 69.6093C78.5461 69.5105 78.6661 69.3845 78.7625 69.2261C78.957 68.9042 79.0534 68.5194 79.0534 68.0715C79.0534 67.547 78.8758 67.2285 78.5241 67.1144C78.4091 67.0787 78.2755 67.0599 78.1284 67.0599H77.7902L77.9204 66.4605H78.2095C78.5477 66.4554 78.8183 66.3174 79.0229 66.0484C79.2258 65.7793 79.329 65.5222 79.329 65.2786C79.329 64.8086 79.1193 64.5753 78.7016 64.5753C78.1994 64.5753 77.7885 64.887 77.4689 65.5085L77.2846 65.4251C77.4029 64.9738 77.6228 64.6315 77.9508 64.3965C78.2755 64.1598 78.6712 64.0423 79.1345 64.0423C79.5979 64.0423 79.9496 64.1581 80.1829 64.3914C80.4163 64.6247 80.5347 64.9346 80.5347 65.3229C80.5347 65.8134 80.3013 66.2033 79.8363 66.4963C79.6875 66.5899 79.5184 66.6666 79.3307 66.7296C80.0223 66.9339 80.3673 67.3579 80.3673 68C80.3673 68.642 80.1491 69.1784 79.7112 69.6058C79.2749 70.035 78.6966 70.2496 77.9779 70.2496C77.5281 70.2496 77.1645 70.1576 76.8906 69.9754C76.6166 69.7915 76.478 69.5122 76.478 69.1392C76.478 68.9179 76.5405 68.7407 76.6674 68.6096C76.7925 68.4768 76.9328 68.4121 77.085 68.4121C77.2372 68.4121 77.3471 68.4308 77.4148 68.47C77.4824 68.5074 77.5348 68.5568 77.5788 68.6215C77.3793 68.7407 77.2795 68.9366 77.2795 69.2074H77.2761Z" fill="black" stroke="#1D1D1B" stroke-width="0.22" stroke-miterlimit="22.93"/>
<path d="M106.493 33.6463C112.036 33.6463 116.529 29.1289 116.529 23.5563C116.529 17.9838 112.036 13.4664 106.493 13.4664C100.95 13.4664 96.4572 17.9838 96.4572 23.5563C96.4572 29.1289 100.95 33.6463 106.493 33.6463Z" fill="black" stroke="#1D1D1B" stroke-width="0.22" stroke-miterlimit="22.93"/>
<path fill-rule="evenodd" clip-rule="evenodd" d="M106.493 8.38475C114.818 8.38475 121.584 15.1676 121.584 23.5563C121.584 31.9451 114.816 38.7279 106.493 38.7279C98.1702 38.7279 91.4028 31.9451 91.4028 23.5563C91.4028 15.1676 98.1685 8.38475 106.493 8.38475ZM106.493 13.87C101.178 13.87 96.8562 18.2006 96.8562 23.5563C96.8562 28.9121 101.177 33.2427 106.493 33.2427C111.81 33.2427 116.13 28.9121 116.13 23.5563C116.13 18.2006 111.81 13.87 106.493 13.87Z" fill="white" stroke="#1D1D1B" stroke-width="0.22" stroke-miterlimit="22.93"/>
<path fill-rule="evenodd" clip-rule="evenodd" d="M106.493 8.7628C114.62 8.7628 121.208 15.3856 121.208 23.5563C121.208 31.7271 114.62 38.3499 106.493 38.3499C98.3663 38.3499 91.7782 31.7271 91.7782 23.5563C91.7782 15.3856 98.3663 8.7628 106.493 8.7628ZM106.493 13.4902C100.964 13.4902 96.4809 17.9962 96.4809 23.5563C96.4809 29.1165 100.964 33.6225 106.493 33.6225C112.023 33.6225 116.506 29.1165 116.506 23.5563C116.506 17.9962 112.023 13.4902 106.493 13.4902Z" fill="black" stroke="#1D1D1B" stroke-width="0.22" stroke-miterlimit="22.93"/>
<path d="M106.493 33.2104C111.797 33.2104 116.096 28.8881 116.096 23.5563C116.096 18.2246 111.797 13.9023 106.493 13.9023C101.19 13.9023 96.8901 18.2246 96.8901 23.5563C96.8901 28.8881 101.19 33.2104 106.493 33.2104Z" fill="black" stroke="#1D1D1B" stroke-width="0.22" stroke-miterlimit="22.93"/>
<path d="M106.493 33.4232C111.914 33.4232 116.308 29.0057 116.308 23.5563C116.308 18.107 111.914 13.6894 106.493 13.6894C101.073 13.6894 96.6787 18.107 96.6787 23.5563C96.6787 29.0057 101.073 33.4232 106.493 33.4232Z" fill="black" stroke="#1D1D1B" stroke-width="0.22" stroke-miterlimit="22.93"/>
<path fill-rule="evenodd" clip-rule="evenodd" d="M119.595 18.9141C119.536 18.7404 119.382 18.6655 119.228 18.7217C119.078 18.7676 118.997 18.9226 119.054 19.0929C119.113 19.27 119.272 19.3432 119.421 19.2939C119.575 19.2377 119.654 19.0878 119.597 18.9141H119.595ZM117.204 20.0261L118.934 19.4386L118.753 18.8988L117.025 19.4863L117.206 20.0261H117.204ZM117.549 16.5163L117.835 17.0085L116.632 17.7135L116.918 18.2057L118.121 17.5007L118.406 17.9928L117.174 18.7149L117.27 18.8954L116.409 19.3688L116.195 18.9993L116.695 18.6842L115.973 17.4376L117.551 16.5146L117.549 16.5163ZM115.356 15.8403C115.535 16.0463 115.834 16.0685 116.042 15.8863C116.25 15.704 116.269 15.3992 116.093 15.1966C115.917 14.9922 115.606 14.965 115.407 15.1506C115.195 15.3345 115.18 15.6376 115.356 15.8403ZM114.033 13.291C114.243 13.4408 114.169 13.7286 114.011 13.9517C113.822 14.2208 113.579 14.3195 113.399 14.1901C113.201 14.0488 113.23 13.7797 113.413 13.5226C113.568 13.3029 113.812 13.1309 114.035 13.2893L114.033 13.291ZM114.279 12.9691C113.8 12.6285 113.266 12.712 112.924 13.1956C112.583 13.6792 112.714 14.2054 113.149 14.5154C113.548 14.7998 114.111 14.8253 114.498 14.277C114.816 13.8274 114.733 13.2944 114.277 12.9691H114.279ZM111.385 12.5331L111.536 12.5996C111.778 12.7068 111.886 12.8346 111.823 12.9793C111.752 13.1445 111.551 13.1173 111.373 13.0389C111.294 13.0049 111.253 12.9861 111.203 12.9555L111.387 12.5331H111.385ZM111.671 11.886C111.732 11.9048 111.783 11.9184 111.855 11.9507C112.063 12.0427 112.123 12.15 112.075 12.2607C112.019 12.3884 111.862 12.385 111.654 12.293L111.521 12.2351L111.671 11.8877V11.886ZM110.563 13.0253L111.284 11.3683C111.417 11.4075 111.715 11.5097 111.975 11.6238C112.26 11.7481 112.789 12.0189 112.616 12.4173C112.522 12.6336 112.298 12.6711 112.116 12.6319L112.112 12.6387C112.344 12.7903 112.447 13.0032 112.347 13.2297C112.139 13.7082 111.475 13.4647 111.133 13.3148C110.902 13.2126 110.662 13.0866 110.562 13.027L110.563 13.0253ZM109.569 11.1878C109.819 11.2457 109.858 11.5403 109.797 11.8077C109.723 12.1295 109.535 12.3118 109.321 12.2624C109.084 12.2062 109.011 11.9473 109.082 11.6408C109.143 11.3785 109.305 11.1265 109.571 11.1895L109.569 11.1878ZM109.676 10.7961C109.106 10.6633 108.641 10.9426 108.507 11.5199C108.374 12.0972 108.693 12.5348 109.214 12.6558C109.691 12.7664 110.222 12.5757 110.372 11.9218C110.498 11.3854 110.22 10.9239 109.676 10.7961ZM107.417 11.3973C107.408 11.6561 107.307 11.9269 107.038 11.9184C106.769 11.9099 106.679 11.588 106.686 11.3479C106.691 11.1912 106.728 11.0788 106.794 10.9869C106.853 10.9017 106.945 10.8421 107.063 10.8455C107.342 10.854 107.423 11.1486 107.415 11.3973H107.417ZM107.861 9.60918C107.733 9.63813 107.486 9.65686 107.315 9.67048C106.982 9.69773 106.728 9.7982 106.544 9.98383C106.267 10.2308 106.133 10.6088 106.118 11.0856C106.096 11.7838 106.397 12.3067 107.034 12.3271C107.575 12.3441 107.983 11.9899 108 11.3922C108.017 10.8455 107.711 10.4709 107.219 10.4555C106.95 10.447 106.725 10.5833 106.608 10.7808H106.59C106.61 10.6344 106.689 10.4453 106.801 10.3329C106.928 10.195 107.121 10.1286 107.383 10.1081C107.518 10.1013 107.709 10.0843 107.817 10.0588L107.861 9.60918ZM104.611 10.9324C104.867 10.9017 105.003 11.164 105.037 11.4364C105.076 11.7634 104.963 12.0001 104.745 12.0274C104.505 12.0563 104.346 11.8383 104.308 11.525C104.276 11.2559 104.342 10.9647 104.613 10.9324H104.611ZM104.577 10.5288C103.996 10.6003 103.656 11.0226 103.727 11.6118C103.798 12.1994 104.248 12.5008 104.777 12.4361C105.262 12.3765 105.695 12.0137 105.616 11.3479C105.55 10.7995 105.134 10.4624 104.577 10.5288ZM102.012 11.6527L102.401 11.5199L102.722 12.4684L102.151 12.6643C102.174 12.557 102.179 12.4361 102.171 12.3288C102.159 12.167 102.13 12.0018 102.081 11.8554L102.012 11.6527ZM101.412 11.4177L102.79 10.946L103.25 12.3032L103.444 12.2436L103.737 13.1854L103.334 13.3233L103.126 12.7682L102.034 13.1428L102.203 13.7116L101.797 13.8512L101.468 12.9265L101.623 12.8618C101.66 12.7256 101.677 12.5808 101.674 12.4412C101.662 12.2436 101.625 12.0376 101.559 11.8469L101.415 11.4211L101.412 11.4177ZM99.8104 12.6643C100.027 12.5229 100.264 12.7 100.412 12.9299C100.592 13.2075 100.592 13.4698 100.407 13.5907C100.204 13.7235 99.966 13.5958 99.7952 13.3318C99.6498 13.1053 99.5821 12.8141 99.8104 12.6643ZM99.6041 12.3169C99.112 12.637 98.992 13.1666 99.3116 13.6639C99.6328 14.1612 100.167 14.2327 100.615 13.9415C101.026 13.6741 101.256 13.1564 100.894 12.5927C100.597 12.1295 100.074 12.0103 99.6041 12.3152V12.3169ZM97.1386 14.2787L98.2682 13.3046L99.457 14.6976L99.0258 15.0688L98.1194 14.0062L97.8201 14.265L98.0382 14.5205C98.3274 14.8594 98.4897 15.1301 98.4407 15.389C98.4339 15.5593 98.346 15.704 98.1532 15.8692L97.8235 15.5746C97.8759 15.5099 97.9131 15.4333 97.9114 15.3652C97.9232 15.217 97.8218 15.0757 97.6206 14.8406L97.1386 14.277V14.2787ZM95.7469 14.6806C95.6286 14.8202 95.6438 14.9922 95.7706 15.0961C95.8873 15.2017 96.0615 15.1932 96.1781 15.0569C96.2999 14.9139 96.2813 14.7402 96.1612 14.638C96.0344 14.5341 95.8653 14.5409 95.7469 14.6806ZM97.9216 16.1775L96.5349 14.9837L96.1663 15.4162L97.5529 16.61L97.9216 16.1775ZM94.7289 17.6369L95.0097 17.1413L96.2187 17.8361L96.4994 17.3406L95.2904 16.6458L95.5711 16.1502L96.8089 16.862L96.9171 16.6883L97.7558 17.2009L97.5445 17.5722L97.0236 17.2946L96.3117 18.5463L94.7273 17.6352L94.7289 17.6369ZM95.2548 19.8967C95.3394 19.6362 95.2041 19.3671 94.942 19.2802C94.6799 19.1934 94.4093 19.3347 94.3265 19.5902C94.2436 19.8473 94.3789 20.1283 94.6393 20.2066C94.9048 20.2935 95.172 20.1521 95.2548 19.8967ZM111.549 35.4685C111.314 35.5758 111.106 35.3663 110.993 35.116C110.858 34.8146 110.897 34.554 111.096 34.4638C111.318 34.3633 111.532 34.5251 111.663 34.8112C111.773 35.0581 111.796 35.3561 111.549 35.4685ZM111.702 35.8431C112.236 35.6013 112.434 35.0938 112.19 34.554C111.947 34.0142 111.429 33.8626 110.942 34.084C110.498 34.2866 110.191 34.7635 110.467 35.3748C110.694 35.8772 111.191 36.0747 111.702 35.8431ZM113.531 33.5595L113.398 33.6548C113.181 33.8098 113.017 33.8354 112.926 33.7059C112.823 33.5595 112.948 33.3994 113.107 33.287C113.176 33.2376 113.213 33.2104 113.266 33.1831L113.531 33.5595ZM113.937 34.1402L113.719 33.832L113.601 33.9171C113.415 34.0499 113.33 34.1828 113.411 34.2969C113.48 34.3939 113.602 34.399 113.788 34.2662C113.852 34.2202 113.89 34.1845 113.937 34.1419V34.1402ZM113.536 32.599L114.578 34.0738C114.476 34.1691 114.236 34.3735 114.005 34.5387C113.753 34.7192 113.249 35.0359 112.999 34.6817C112.863 34.4893 112.946 34.2781 113.075 34.1402L113.07 34.1334C112.821 34.2543 112.588 34.2339 112.444 34.0312C112.143 33.6055 112.692 33.1593 112.997 32.9413C113.203 32.7932 113.433 32.6518 113.536 32.5973V32.599ZM115.606 32.6637C115.428 32.8511 115.156 32.7336 114.96 32.5445C114.723 32.3163 114.662 32.0592 114.815 31.9008C114.982 31.7254 115.242 31.7935 115.469 32.0115C115.664 32.1988 115.795 32.4662 115.606 32.6637ZM115.887 32.9549C116.293 32.5292 116.289 31.986 115.863 31.5755C115.437 31.1651 114.901 31.2196 114.531 31.6062C114.192 31.9604 114.086 32.5173 114.568 32.9822C114.963 33.3636 115.5 33.3602 115.887 32.9532V32.9549ZM116.507 30.69C116.291 30.5487 116.113 30.3222 116.259 30.0957C116.404 29.8692 116.725 29.9577 116.927 30.0872C117.059 30.1723 117.135 30.2626 117.177 30.3665C117.219 30.4601 117.223 30.5708 117.158 30.6713C117.006 30.908 116.714 30.8245 116.507 30.69ZM117.799 31.9962C117.84 31.8702 117.951 31.6488 118.029 31.4938C118.178 31.1924 118.224 30.9233 118.161 30.6679C118.094 30.3017 117.842 29.9901 117.444 29.7312C116.861 29.3515 116.26 29.3396 115.914 29.8777C115.62 30.3341 115.711 30.8671 116.21 31.1924C116.666 31.4904 117.143 31.4206 117.41 31.0051C117.556 30.7786 117.557 30.5146 117.449 30.3103L117.459 30.2949C117.573 30.3869 117.693 30.5538 117.732 30.7087C117.784 30.891 117.74 31.0902 117.623 31.3269C117.559 31.4461 117.475 31.6198 117.441 31.7271L117.801 31.9962H117.799ZM118.347 28.437C118.252 28.6771 117.957 28.672 117.703 28.5715C117.399 28.4489 117.245 28.2361 117.326 28.03C117.415 27.8035 117.683 27.7677 117.973 27.8853C118.224 27.9857 118.447 28.1833 118.345 28.437H118.347ZM118.716 28.6005C118.932 28.0538 118.724 27.5498 118.176 27.3318C117.628 27.1138 117.152 27.3658 116.954 27.8648C116.773 28.3212 116.883 28.8781 117.503 29.125C118.012 29.3294 118.508 29.1233 118.714 28.5988L118.716 28.6005ZM119.025 25.8349L118.951 26.2402L117.972 26.058L118.082 25.4602C118.163 25.5318 118.264 25.5965 118.362 25.6425C118.509 25.7123 118.665 25.7668 118.816 25.7957L119.025 25.8349ZM119.522 25.4228L119.083 25.341C118.885 25.3036 118.689 25.2372 118.511 25.1503C118.386 25.0856 118.269 24.9987 118.17 24.9L118.19 24.7314L117.226 24.5679L117.148 24.9919L117.723 25.1214L117.513 26.2623L116.93 26.1738L116.852 26.5944L117.813 26.7988L117.857 26.5995L119.259 26.8601L119.522 25.4211V25.4228ZM119.26 23.4593C119.269 23.7181 118.995 23.8322 118.724 23.8407C118.396 23.851 118.171 23.7147 118.165 23.495C118.158 23.2515 118.388 23.1119 118.701 23.1034C118.969 23.0948 119.252 23.1868 119.26 23.461V23.4593ZM119.663 23.461C119.644 22.8718 119.255 22.4937 118.667 22.5124C118.077 22.5312 117.74 22.9552 117.757 23.4916C117.772 23.9821 118.094 24.4487 118.761 24.4283C119.309 24.4112 119.681 24.023 119.664 23.461H119.663ZM119.179 20.2271L118.459 20.394C118.158 20.4638 117.987 20.4876 117.862 20.4093C117.801 20.3803 117.752 20.3122 117.718 20.2339L117.306 20.3906C117.363 20.6392 117.449 20.7839 117.595 20.8691C117.801 21.0326 118.114 21.0138 118.547 20.9134L118.873 20.8367L118.963 21.2233L117.606 21.5384L117.733 22.0935L119.511 21.6814L119.176 20.2237L119.179 20.2271ZM93.7431 22.2757C93.7735 22.0186 94.061 21.9488 94.3316 21.9811C94.6579 22.0203 94.8592 22.1889 94.8321 22.4086C94.8034 22.6504 94.5531 22.7526 94.2419 22.7151C93.9748 22.6827 93.7093 22.5482 93.7414 22.2757H93.7431ZM93.3457 22.2127C93.2747 22.7968 93.6027 23.2311 94.1878 23.3009C94.7729 23.3724 95.1703 23.0046 95.2346 22.4716C95.2937 21.9828 95.0469 21.4736 94.384 21.3936C93.8395 21.3272 93.4133 21.6542 93.3457 22.2127ZM94.4161 24.9749L94.4043 24.8097C94.384 24.5441 94.4465 24.3891 94.6038 24.3772C94.7831 24.3635 94.8524 24.5543 94.8676 24.7484C94.8744 24.8336 94.8778 24.8795 94.8744 24.9391L94.4161 24.9749ZM93.7127 25.026C93.7008 24.963 93.689 24.9119 93.6839 24.8319C93.667 24.6037 93.7329 24.5015 93.853 24.4913C93.9917 24.4811 94.061 24.6224 94.0796 24.8506L94.0898 24.997L93.7143 25.026H93.7127ZM95.2329 25.4739C95.2396 25.3564 95.2362 25.0856 95.2176 24.8319C95.1889 24.4572 95.0908 23.7539 94.5734 23.7931C94.3282 23.8118 94.1895 24.0025 94.1641 24.2801H94.1574C94.1067 24.0996 93.968 23.9191 93.7346 23.9361C93.3034 23.9685 93.3153 24.5662 93.3389 24.8778C93.3609 25.1622 93.41 25.4739 93.4387 25.6118L95.2329 25.4739ZM94.1709 27.2245C94.1016 26.9759 94.34 26.7988 94.6021 26.7255C94.9183 26.637 95.1686 26.7136 95.2278 26.9265C95.2937 27.1615 95.1027 27.3522 94.8 27.4374C94.5412 27.5106 94.2453 27.4885 94.1709 27.2245ZM93.7786 27.3199C93.9376 27.887 94.4043 28.1611 94.9725 28.0011C95.5406 27.841 95.7672 27.3488 95.6235 26.8328C95.4916 26.3594 95.0688 25.9831 94.4263 26.1653C93.8987 26.3134 93.6281 26.78 93.7803 27.3216L93.7786 27.3199ZM95.4442 28.9939C95.6742 28.8781 95.96 28.8389 96.0801 29.0807C96.2001 29.3225 95.9617 29.5558 95.7486 29.6631C95.6083 29.733 95.4933 29.7534 95.3817 29.7381C95.2802 29.7261 95.1838 29.6751 95.1297 29.5678C95.0046 29.3157 95.2244 29.1046 95.4442 28.9939ZM93.6687 29.4503C93.7549 29.549 93.8885 29.7585 93.9815 29.905C94.1642 30.1876 94.3721 30.363 94.6224 30.438C94.9691 30.5657 95.3648 30.5044 95.7892 30.2915C96.4098 29.9799 96.726 29.4639 96.4402 28.89C96.1984 28.4029 95.6945 28.2122 95.1635 28.4796C94.6765 28.7248 94.4939 29.1727 94.7154 29.6154C94.8355 29.8573 95.0604 29.9918 95.2904 30.002L95.2988 30.019C95.1618 30.0701 94.9589 30.0889 94.8067 30.0446C94.6241 29.9969 94.477 29.859 94.3333 29.6376C94.2639 29.5218 94.1574 29.36 94.083 29.2766L93.6687 29.452V29.4503ZM96.4876 31.7135C96.3286 31.5108 96.4808 31.2554 96.6939 31.0868C96.9526 30.8824 97.213 30.8569 97.3483 31.0306C97.4988 31.223 97.394 31.4717 97.1488 31.6675C96.9374 31.8344 96.655 31.9298 96.4876 31.7135ZM96.1612 31.9519C95.8146 31.5091 95.8856 30.9761 96.3168 30.6355C96.841 30.22 97.3754 30.4039 97.6781 30.7905C98.0078 31.2111 97.9858 31.7544 97.5225 32.1205C97.0591 32.4866 96.5231 32.4151 96.1612 31.9519ZM98.3984 33.5833L98.089 33.3126L98.7417 32.5564L99.1983 32.9549C99.0951 32.989 98.9869 33.0435 98.899 33.1065C98.7654 33.1985 98.6385 33.3057 98.5371 33.4215L98.3984 33.5833ZM98.4982 34.2219L98.7924 33.8813C98.9243 33.7281 99.0816 33.5918 99.2456 33.4829C99.364 33.4079 99.4976 33.35 99.6329 33.3143L99.7664 33.4164L100.397 32.6637L100.073 32.381L99.6684 32.8136L98.7958 32.0524L99.1678 31.5926L98.8465 31.3116L98.1837 32.0387L98.3325 32.1784L97.3973 33.2598L98.4965 34.2202L98.4982 34.2219ZM100.368 34.9763C100.14 34.8571 100.174 34.5625 100.299 34.319C100.45 34.0261 100.676 33.895 100.872 33.9954C101.089 34.1078 101.096 34.3769 100.952 34.6579C100.828 34.898 100.61 35.1024 100.368 34.9763ZM100.171 35.3289C99.6734 35.07 99.5179 34.5557 99.7698 34.0653C100.076 33.4692 100.637 33.413 101.072 33.6395C101.545 33.8865 101.75 34.3888 101.479 34.915C101.209 35.4412 100.691 35.5996 100.171 35.3289ZM103.15 36.4869L103.378 35.7801C103.475 35.4838 103.541 35.3254 103.673 35.2573C103.728 35.2199 103.813 35.2131 103.896 35.2233L103.974 34.7873C103.732 34.709 103.564 34.709 103.416 34.7907C103.17 34.8844 103.025 35.1637 102.888 35.5894L102.785 35.9113L102.409 35.7886L102.839 34.4569L102.3 34.2815L101.736 36.0271L103.154 36.4886L103.15 36.4869ZM108.692 35.3323C108.423 35.3799 108.25 35.6269 108.298 35.901C108.345 36.1752 108.595 36.3472 108.861 36.3012C109.126 36.2553 109.309 36.0015 109.255 35.7324C109.206 35.4549 108.957 35.2863 108.692 35.3323ZM104.175 37.5001C104.354 37.5325 104.494 37.4303 104.518 37.2668C104.549 37.1118 104.454 36.9654 104.276 36.9347C104.092 36.9024 103.953 37.008 103.926 37.1629C103.901 37.3264 103.994 37.4678 104.175 37.5001ZM104.349 34.8571L104.033 36.664L104.591 36.7627L104.907 34.9559L104.349 34.8571ZM107.154 36.9092L107.195 35.0751L105.761 35.0428L105.756 34.4501L105.332 34.4399L105.284 35.4259L105.487 35.4378L105.455 36.87L106.021 36.8819L106.052 35.4821L106.618 35.4957L106.588 36.8956L107.154 36.9075V36.9092Z" fill="white" stroke="#1D1D1B" stroke-width="0.22" stroke-miterlimit="22.93"/>
<path fill-rule="evenodd" clip-rule="evenodd" d="M109.556 27.7507H111.135V24.0655C111.135 23.9327 111.171 23.7147 111.196 23.6176C111.316 23.2175 111.546 23.0608 111.811 23.0608C112.282 23.0608 112.39 23.57 112.39 24.1524V27.7524H113.969V24.1524C113.969 22.6487 113.546 21.7274 112.462 21.7274C112.173 21.7274 111.896 21.8006 111.666 21.9334C111.473 22.0663 111.292 22.2366 111.159 22.4426H111.135V19.3637H109.556V27.7524V27.7507ZM105.335 24.5985V24.5747L106.179 22.9143C106.383 22.4784 106.541 22.1259 106.722 21.6899H106.769C106.733 22.102 106.684 22.5635 106.684 22.9876V24.6003H105.333L105.335 24.5985ZM108.084 27.7507V25.8724H108.867V24.5985H108.084V19.8712H106.564L103.996 24.7808V25.8724H106.684V27.7507H108.083H108.084ZM103.309 27.7507V26.356H100.91V26.3322L101.38 25.7736C102.284 24.7195 103.201 23.5308 103.201 22.0509C103.201 20.9236 102.646 19.7724 100.933 19.7724C100.221 19.7724 99.5466 20.0278 99.1847 20.2577L99.4621 21.4941C99.7512 21.3119 100.15 21.0939 100.644 21.0939C101.295 21.0939 101.645 21.5418 101.645 22.1718C101.645 23.2992 100.813 24.3789 99.8003 25.6748L99.0173 26.6813V27.7473H103.311L103.309 27.7507Z" fill="white" stroke="#1D1D1B" stroke-width="0.22" stroke-miterlimit="22.93"/>
</g>
<defs>
<clipPath id="clip0_1508_24">
<rect width="115.093" height="63.7908" fill="white" transform="translate(48.9536 8.36601)"/>
</clipPath>
</defs>
</svg>
