<svg width="213" height="80" viewBox="0 0 213 80" fill="none" xmlns="http://www.w3.org/2000/svg">
<path fill-rule="evenodd" clip-rule="evenodd" d="M127.278 19.3477C127.908 19.3353 128.366 19.4102 128.699 19.56C128.971 19.6848 129.441 20.0093 129.737 20.284C130.034 20.5461 130.368 20.9705 130.491 21.2077C130.615 21.4449 130.776 21.8943 130.85 22.2063C130.973 22.6682 130.875 24.291 130.244 31.8556C129.601 39.7323 129.466 40.9931 129.255 41.43C129.119 41.7046 128.86 42.0416 128.662 42.1665C128.477 42.2913 128.094 42.466 127.809 42.5409C127.513 42.6158 127.13 42.6408 126.944 42.6034C126.746 42.5534 126.388 42.4036 126.116 42.2538C125.856 42.1165 125.51 41.767 125.35 41.4924C125.078 41.018 125.028 40.5187 124.324 31.943C123.669 23.9914 123.595 22.818 123.731 22.2687C123.817 21.9192 124.04 21.3825 124.225 21.0454C124.41 20.7209 124.744 20.3214 124.967 20.1591C125.177 19.9844 125.585 19.7347 125.856 19.5974C126.215 19.4102 126.598 19.3477 127.278 19.3477V19.3477ZM45.0845 38.4965C45.8014 38.5215 46.8272 38.6338 47.3711 38.7461C47.9149 38.8585 48.7801 39.1206 49.2868 39.3204C49.7936 39.5201 50.5723 39.907 51.0172 40.1692C51.4622 40.4438 52.1791 40.9806 52.6117 41.3925C53.0443 41.792 53.6375 42.4536 53.9218 42.8655C54.2184 43.2774 54.6016 43.9265 54.787 44.301C54.9724 44.6755 55.2567 45.3496 55.405 45.799C55.5533 46.2484 55.7511 47.0597 55.8376 47.609C55.9488 48.2581 55.9736 49.1693 55.9241 50.2304C55.8747 51.3039 55.7634 52.1652 55.6028 52.7519C55.4544 53.2512 55.1825 54.0127 54.9971 54.4371C54.7994 54.874 54.4286 55.5606 54.1443 55.9725C53.8724 56.3845 53.3162 57.046 52.9207 57.458C52.5128 57.8574 51.8824 58.3942 51.5116 58.6563C51.1408 58.906 50.5599 59.2555 50.2138 59.4303C49.8801 59.605 49.2374 59.8672 48.7925 60.0045C48.3475 60.1543 47.5812 60.354 47.0991 60.4664C46.58 60.5787 45.5542 60.6536 44.689 60.6536C43.7991 60.6536 42.7361 60.5787 42.1181 60.4539C41.5372 60.3415 40.672 60.1168 40.2023 59.9421C39.7326 59.7673 39.0281 59.4552 38.6573 59.243C38.2865 59.0308 37.6685 58.6314 37.2977 58.3318C36.9269 58.0447 36.3708 57.5454 36.0618 57.2083C35.7528 56.8713 35.3078 56.3096 35.073 55.9725C34.8381 55.623 34.4673 54.9614 34.2572 54.4746C34.0347 53.9877 33.7381 53.1264 33.5898 52.5397C33.4538 51.953 33.3055 50.9419 33.2561 50.2928C33.219 49.6062 33.2437 48.6326 33.3302 47.9835C33.4167 47.3718 33.6516 46.3482 33.8493 45.7366C34.0471 45.1249 34.4797 44.1762 34.801 43.6269C35.1224 43.0902 35.7404 42.2663 36.1854 41.8044C36.6303 41.3551 37.409 40.706 37.9157 40.3689C38.4225 40.0319 39.2012 39.6075 39.6461 39.4327C40.0911 39.2455 40.845 38.9958 41.3147 38.871C41.7844 38.7586 42.5383 38.6088 42.9833 38.5589C43.4283 38.4965 44.3676 38.4715 45.0845 38.4965V38.4965ZM41.5619 44.5132C41.2282 44.7379 40.7956 45.0625 40.6102 45.2622C40.4248 45.4494 40.0787 45.9488 39.8439 46.3607C39.5967 46.7726 39.3124 47.4842 39.2135 47.946C39.1146 48.4204 39.0281 49.1194 39.0281 49.5064C39.0281 49.9058 39.0776 50.5425 39.1517 50.917C39.2259 51.2914 39.4484 51.953 39.6461 52.3774C39.8562 52.8143 40.3136 53.4759 40.672 53.8629C41.0922 54.3123 41.6237 54.7117 42.1799 54.9989C42.9091 55.3609 43.2181 55.4358 44.1575 55.4982C44.8744 55.5481 45.5171 55.5106 45.9497 55.4108C46.3205 55.3234 46.9385 55.0987 47.3093 54.9115C47.6801 54.7242 48.261 54.2998 48.5947 53.9628C48.9284 53.6133 49.3734 52.9641 49.6082 52.4773C49.8801 51.9156 50.0779 51.2415 50.1768 50.6049C50.288 49.8309 50.288 49.3816 50.1768 48.6076C50.0902 48.0209 49.8678 47.2844 49.6576 46.8226C49.4475 46.3981 48.9902 45.7366 48.6441 45.3496C48.1992 44.8752 47.6924 44.5132 47.0744 44.2012C46.2092 43.7643 46.0609 43.7393 44.8496 43.7143C43.8609 43.6894 43.3665 43.7268 42.8597 43.9016C42.4889 44.0264 41.908 44.301 41.5619 44.5132V44.5132ZM191.673 38.4965C192.612 38.5339 193.576 38.6463 194.145 38.7836C194.652 38.9209 195.43 39.208 195.875 39.4327C196.32 39.6574 196.988 40.1567 197.371 40.5437C197.841 41.0055 198.224 41.5548 198.52 42.1789C198.768 42.6907 199.077 43.6269 199.212 44.2386C199.435 45.2872 199.46 45.8364 199.46 52.1028C199.46 58.6189 199.447 58.8561 199.212 59.243C199.077 59.4677 198.78 59.7673 198.57 59.9046C198.248 60.1043 197.939 60.1543 197.173 60.1543C196.481 60.1543 196.061 60.0919 195.764 59.9296C195.529 59.8172 195.233 59.5801 195.109 59.4053C194.973 59.2305 194.837 58.8311 194.701 57.9323L194.021 58.569C193.651 58.9185 192.958 59.3803 192.476 59.605C192.007 59.8172 191.203 60.0919 190.721 60.2042C190.227 60.3166 189.3 60.4039 188.682 60.4039C188.051 60.4039 187.174 60.3166 186.729 60.2042C186.284 60.1044 185.617 59.8547 185.246 59.6425C184.875 59.4428 184.368 59.1182 184.133 58.931C183.899 58.7312 183.466 58.2194 183.169 57.7701C182.873 57.3332 182.514 56.5842 182.366 56.0973C182.168 55.4482 182.106 54.899 182.106 53.9128C182.106 52.9267 182.168 52.3899 182.366 51.7283C182.514 51.2415 182.848 50.5175 183.12 50.1056C183.379 49.6936 183.837 49.1444 184.146 48.8822C184.442 48.6076 185.048 48.2082 185.493 47.9835C185.938 47.7588 186.655 47.4717 187.1 47.3468C187.681 47.1846 188.36 47.1222 189.572 47.1222C190.808 47.1097 191.45 47.1721 192.044 47.3344C192.489 47.4592 193.156 47.7089 193.527 47.8836C193.898 48.0709 194.244 48.2331 194.306 48.2581C194.355 48.2831 194.392 47.971 194.392 47.5715C194.392 47.1846 194.306 46.4606 194.207 45.9862C194.095 45.4994 193.885 44.8877 193.737 44.6131C193.589 44.351 193.243 43.9515 192.971 43.7393C192.662 43.4896 192.192 43.2899 191.735 43.1776C191.24 43.0777 190.585 43.0403 189.757 43.1027C189.04 43.1401 188.064 43.3024 187.409 43.4896C186.729 43.6769 186.123 43.7767 185.864 43.7393C185.629 43.7018 185.27 43.5521 185.073 43.4023C184.875 43.24 184.578 42.853 184.43 42.516C184.245 42.1665 184.133 41.7046 184.133 41.3675C184.133 40.9306 184.208 40.7184 184.479 40.4188C184.665 40.1942 185.06 39.8946 185.369 39.7448C185.678 39.5825 186.395 39.3079 186.976 39.1206C187.557 38.9459 188.496 38.7087 189.077 38.6213C189.757 38.4965 190.672 38.459 191.673 38.4965V38.4965ZM188.867 51.2165C188.669 51.3039 188.336 51.5785 188.126 51.8032C187.903 52.0404 187.656 52.4523 187.582 52.727C187.508 53.0016 187.483 53.451 187.532 53.7256C187.582 54.0002 187.73 54.4122 187.878 54.6493C188.027 54.8865 188.398 55.2235 188.707 55.3983C189.213 55.6854 189.386 55.7229 190.561 55.7229C191.722 55.7229 191.932 55.6854 192.6 55.3733C193.008 55.1861 193.576 54.7866 193.873 54.4995L194.392 53.9753V51.7908C193.774 51.4038 193.317 51.2041 192.971 51.0917C192.637 50.9918 191.858 50.8795 191.24 50.8545C190.622 50.8296 189.918 50.8545 189.671 50.917C189.411 50.9918 189.053 51.1167 188.867 51.2165V51.2165ZM16.9039 38.9708C17.9174 38.9958 18.2882 39.0457 18.5478 39.208C18.7332 39.3328 18.9927 39.6199 19.1287 39.8322C19.3635 40.2316 19.3759 40.4688 19.3759 49.6062C19.3635 58.4941 19.3512 58.9934 19.141 59.3429C19.0174 59.5426 18.6961 59.8172 18.4365 59.9546C18.0287 60.1418 17.732 60.1792 15.0376 60.0919L14.0611 59.0308V49.6687C14.0611 41.5922 14.0858 40.2566 14.2465 39.932C14.3454 39.7198 14.5802 39.4577 14.7656 39.3204C14.9634 39.1955 15.223 39.0582 15.3589 39.0208C15.4949 38.9833 16.187 38.9584 16.9039 38.9708V38.9708ZM127.649 44.8503C128.736 44.8877 129.305 44.9751 130.059 45.2248C130.603 45.3995 131.381 45.7366 131.789 45.9862C132.197 46.2359 132.803 46.6977 133.136 47.0223C133.47 47.3468 133.952 47.946 134.224 48.358C134.484 48.7699 134.842 49.5563 135.015 50.1056C135.213 50.7047 135.361 51.5536 135.398 52.2277C135.448 53.0141 135.411 53.6632 135.262 54.4122C135.139 55.0363 134.854 55.8976 134.57 56.4968C134.199 57.2707 133.866 57.7451 133.235 58.3692C132.679 58.931 132.086 59.3803 131.48 59.6924C130.973 59.9546 130.133 60.2791 129.626 60.4039C128.971 60.5787 128.279 60.6536 127.278 60.6536C126.215 60.6536 125.622 60.5912 124.929 60.3915C124.423 60.2541 123.644 59.967 123.199 59.7423C122.655 59.4802 122.087 59.0433 121.456 58.4067C120.801 57.7576 120.381 57.1958 120.072 56.5967C119.837 56.1098 119.541 55.3609 119.429 54.9115C119.293 54.3997 119.207 53.6257 119.207 52.7894C119.207 51.953 119.281 51.1916 119.405 50.6673C119.528 50.2179 119.812 49.4565 120.047 48.9821C120.27 48.4953 120.739 47.7962 121.073 47.4217C121.395 47.0473 122.025 46.498 122.47 46.1984C122.902 45.8988 123.57 45.5493 123.941 45.412C124.311 45.2622 124.979 45.075 125.424 44.9751C125.943 44.8628 126.734 44.8253 127.649 44.8503V44.8503ZM125.313 50.4426C125.09 50.6673 124.793 51.0792 124.67 51.3538C124.522 51.6909 124.435 52.1528 124.435 52.727C124.435 53.4385 124.497 53.7256 124.769 54.2873C125.004 54.7617 125.288 55.0987 125.671 55.3609C125.992 55.5855 126.487 55.7853 126.845 55.8352C127.29 55.9101 127.661 55.8727 128.168 55.7353C128.712 55.5855 129.008 55.3983 129.391 54.9989C129.713 54.6618 129.96 54.2499 130.071 53.8504C130.17 53.5009 130.244 53.0016 130.244 52.727C130.244 52.4523 130.158 51.978 130.059 51.6659C129.948 51.3538 129.713 50.917 129.527 50.6798C129.342 50.4426 128.909 50.118 128.576 49.9558C128.18 49.781 127.735 49.6687 127.34 49.6811C126.994 49.6811 126.499 49.756 126.227 49.8559C125.955 49.9558 125.547 50.2304 125.313 50.4426V50.4426ZM29.3503 38.9334C30.129 38.9334 30.7841 38.9958 31.0189 39.0957C31.2414 39.1955 31.538 39.3953 31.674 39.57C31.8223 39.7323 31.9706 40.0818 32.0201 40.3315C32.0695 40.6435 32.0448 40.9431 31.9335 41.2053C31.847 41.43 30.4504 43.2649 28.8436 45.2622C27.0514 47.5216 25.9514 48.9946 25.9884 49.1069C26.0255 49.2068 27.5458 51.1292 29.3627 53.3761C31.192 55.6355 32.7493 57.5953 32.8235 57.7451C32.91 57.9074 32.9718 58.2444 32.9718 58.4941C32.9718 58.7562 32.8605 59.1557 32.7246 59.3679C32.5886 59.5926 32.2796 59.8672 32.0448 59.967C31.7481 60.0919 31.1796 60.1543 30.2155 60.1543C29.4616 60.1543 28.6335 60.0919 28.3986 60.017C28.1638 59.9296 27.7683 59.7299 27.5334 59.5551C27.2986 59.3803 25.5929 57.3207 23.7636 54.9489C21.922 52.5897 20.3647 50.505 20.2782 50.3178C20.1916 50.1305 20.1298 49.7436 20.1175 49.444C20.1175 49.1569 20.204 48.7324 20.3152 48.5078C20.4265 48.2955 21.8602 46.2359 23.5041 43.939C25.1356 41.6547 26.6435 39.6574 26.8536 39.5076C27.0514 39.3703 27.4222 39.183 27.657 39.0957C27.8919 39.0083 28.6582 38.9459 29.3503 38.9334V38.9334ZM68.7784 38.9708C76.9854 38.9958 77.2079 39.0083 77.5416 39.2455C77.7146 39.3828 77.9865 39.6574 78.1349 39.8446C78.3944 40.1942 78.3944 40.2441 78.4562 58.5939L78.1843 59.1432C77.9989 59.4927 77.7393 59.7798 77.4674 59.9296C77.1213 60.1044 76.7506 60.1543 75.6752 60.1543C74.5381 60.1543 74.2539 60.1168 73.9078 59.9046C73.6977 59.7673 73.401 59.4677 73.2651 59.243C73.0302 58.8561 73.0179 58.6189 73.0179 44.1762H64.2423V58.5939L63.9704 59.1432C63.785 59.4927 63.5255 59.7798 63.2535 59.9296C62.9075 60.1044 62.5367 60.1543 61.4614 60.1543C60.3242 60.1543 60.04 60.1168 59.6939 59.9046C59.4838 59.7673 59.1871 59.4677 59.0512 59.243C58.8163 58.8561 58.804 58.6189 58.804 49.5438C58.804 40.4688 58.8163 40.2316 59.0512 39.8322C59.1871 39.6075 59.5332 39.3204 59.8175 39.183C60.3366 38.9459 60.5962 38.9334 68.7784 38.9708V38.9708ZM86.7621 38.9584C87.8745 38.9958 88.134 39.0332 88.4307 39.2579C88.6161 39.4077 88.888 39.6824 89.0239 39.8571C89.2711 40.1942 89.2711 40.3939 89.2711 49.5189C89.2711 58.6189 89.2711 58.8561 89.0239 59.268C88.888 59.4927 88.579 59.7923 88.3441 59.9171C87.9981 60.1043 87.6396 60.1543 86.5767 60.1543C85.6868 60.1543 85.1429 60.0919 84.9081 59.9795C84.7227 59.8797 84.4384 59.655 83.9564 59.1307L83.9193 49.6936C83.8946 40.4188 83.8946 40.2316 84.1418 39.8322C84.2777 39.6199 84.6238 39.3204 84.9081 39.183C85.353 38.9708 85.6497 38.9334 86.7621 38.9584ZM97.6388 38.9584C98.7512 38.9958 99.0107 39.0332 99.3074 39.2579C99.4928 39.4077 99.7647 39.6824 99.9006 39.8571C100.135 40.1817 100.148 40.4438 100.271 52.0903L104.585 46.161C106.958 42.9154 109.047 40.0818 109.22 39.8946C109.393 39.6948 109.764 39.4077 110.036 39.2704C110.481 39.0208 110.728 38.9958 112.261 38.9958C113.855 38.9958 114.028 39.0208 114.386 39.2704C114.609 39.4327 114.881 39.7198 114.98 39.932C115.14 40.2566 115.165 41.5548 115.103 59.1307L114.794 59.4677C114.621 59.655 114.337 59.8797 114.139 59.9795C113.917 60.0919 113.373 60.1543 112.508 60.1543C111.519 60.1543 111.099 60.1044 110.765 59.9296C110.518 59.8172 110.196 59.5177 110.048 59.2805C109.801 58.8561 109.789 58.6938 109.665 47.0722L105.154 53.2512C101.359 58.4441 100.556 59.4802 100.086 59.7673C99.5669 60.0669 99.4186 60.0919 97.7995 60.1293C96.2421 60.1543 96.032 60.1418 95.6612 59.9046C95.4511 59.7673 95.1544 59.4677 95.0185 59.243C94.7836 58.8561 94.7713 58.6189 94.7713 49.5438C94.7713 40.4688 94.7836 40.2316 95.0185 39.8322C95.1544 39.6199 95.5005 39.3204 95.7848 39.183C96.2298 38.9708 96.5264 38.9334 97.6388 38.9584V38.9584ZM140.466 38.9334C141.343 38.9334 142.011 38.9958 142.258 39.0957C142.481 39.1955 142.814 39.4327 143.296 39.9944L143.37 43.1152C143.42 45.8988 143.457 46.3108 143.692 46.9224C143.84 47.2969 144.137 47.7962 144.359 48.0334C144.582 48.2581 144.928 48.5452 145.138 48.6575C145.422 48.8073 145.855 48.8573 146.992 48.8573C147.869 48.8573 148.673 48.7824 148.969 48.695C149.241 48.6076 149.674 48.4329 150.403 48.1083L150.391 44.1762C150.391 40.4563 150.403 40.2191 150.638 39.8322C150.786 39.595 151.108 39.3328 151.466 39.1706C151.973 38.9334 152.232 38.9084 153.32 38.9459C154.334 38.9833 154.643 39.0457 154.915 39.2455C155.088 39.3828 155.36 39.6574 155.508 39.8446C155.767 40.1942 155.767 40.2191 155.767 49.5189C155.767 58.6189 155.767 58.8561 155.52 59.268C155.384 59.4927 155.075 59.7923 154.84 59.9171C154.494 60.1043 154.136 60.1543 153.073 60.1543C152.183 60.1543 151.639 60.0919 151.404 59.9795C151.219 59.8797 150.935 59.655 150.453 59.1307L150.391 52.9142L150.045 53.089C149.859 53.1764 149.266 53.401 148.722 53.5758C148.178 53.7506 147.153 53.9503 146.436 54.0252C145.546 54.1251 144.792 54.125 144.025 54.0502C143.408 53.9753 142.555 53.813 142.11 53.6757C141.665 53.5384 140.96 53.2013 140.528 52.9142C140.107 52.6396 139.526 52.1153 139.255 51.7533C138.97 51.4038 138.612 50.8171 138.464 50.48C138.303 50.1305 138.08 49.5189 137.969 49.1069C137.784 48.4828 137.734 47.6964 137.635 40.2441L137.932 39.8072C138.093 39.57 138.414 39.2704 138.649 39.1581C138.983 38.9833 139.391 38.9334 140.466 38.9334V38.9334ZM163.369 38.9708C164.481 38.9958 164.728 39.0332 165.062 39.2829C165.285 39.4327 165.556 39.7198 165.655 39.932C165.816 40.2566 165.841 41.5922 165.841 59.0308L164.864 60.0919L163.406 60.1418C162.17 60.1792 161.873 60.1418 161.465 59.9546C161.206 59.8172 160.884 59.5426 160.761 59.3429C160.551 58.9934 160.538 58.4941 160.526 49.6312C160.526 41.8918 160.551 40.2441 160.699 39.957C160.798 39.7697 160.971 39.5201 161.095 39.4077C161.23 39.2829 161.49 39.1331 161.7 39.0582C161.91 38.9958 162.652 38.9584 163.369 38.9708V38.9708ZM175.815 38.9334C176.68 38.9334 177.224 38.9958 177.521 39.1206C177.756 39.2205 178.065 39.4951 178.201 39.7073C178.361 39.9695 178.448 40.344 178.448 40.706C178.448 41.2926 178.411 41.3551 176.137 44.2012C174.876 45.799 173.479 47.5466 172.268 49.0445L175.704 53.2512C177.595 55.5731 179.214 57.5953 179.288 57.7451C179.375 57.9074 179.437 58.2194 179.437 58.4316C179.437 58.6563 179.338 59.0433 179.202 59.2805C179.078 59.5177 178.782 59.8172 178.559 59.9421C178.225 60.1044 177.83 60.1543 176.717 60.1543C175.753 60.1543 175.111 60.0919 174.74 59.967C174.431 59.8547 174.011 59.6175 173.801 59.4303C173.578 59.243 171.984 57.2583 170.241 54.9989C168.498 52.7519 166.965 50.7297 166.83 50.505C166.669 50.2554 166.582 49.8809 166.582 49.5064C166.582 49.1818 166.632 48.7824 166.706 48.6076C166.768 48.4329 168.201 46.3732 169.882 44.0264C171.576 41.6921 173.108 39.6574 173.318 39.5076C173.529 39.3703 173.887 39.183 174.122 39.0957C174.357 39.0083 175.123 38.9459 175.815 38.9334V38.9334Z" fill="black"/>
</svg>
