<svg width="213" height="80" viewBox="0 0 213 80" fill="none" xmlns="http://www.w3.org/2000/svg">
<path fill-rule="evenodd" clip-rule="evenodd" d="M17.764 18.8374H195.814V61.9878H17.764V18.8374Z" fill="#1B1918"/>
<path fill-rule="evenodd" clip-rule="evenodd" d="M47.7919 48.0872L45.3322 33.1034H41.9191L37.5249 41.5804L33.1767 33.1034H29.7406L27.2578 48.0872H31.1408L32.5365 39.0646L37.1334 48.0872H37.9118L42.5133 39.0553L43.909 48.0872H47.7919ZM50.6523 31.1056H54.6642V27.3411H50.6523V31.1056ZM50.6431 48.0872H54.6734V33.1034H50.6431V48.0872ZM67.9989 33.1034V38.653H62.573V33.1034H58.5472V48.0872H62.573V42.3157H67.9989V48.0872H72.0247V33.1034H67.9989ZM75.9122 31.1056H79.9242V27.3411H75.9122V31.1056ZM75.903 48.0872H79.9334V33.1034H75.903V48.0872Z" fill="white"/>
<path fill-rule="evenodd" clip-rule="evenodd" d="M103.259 48.0872L100.799 33.1034H97.3859L92.9917 41.5804L88.6435 33.1034H85.2074L82.7247 48.0872H86.6076L88.0033 39.0646L92.6002 48.0872H93.3786L97.9801 39.0553L99.3758 48.0872H103.259ZM118.155 33.1081L117.722 34.5371C116.432 33.3578 114.733 32.6826 112.816 32.6826C108.325 32.6826 104.991 36.0539 104.991 40.5722C104.991 45.109 108.325 48.5081 112.816 48.5081C114.7 48.5081 116.372 47.8514 117.657 46.723L118.003 48.0919H121.163V33.1127L118.155 33.1081ZM113.148 44.6835C110.804 44.6835 109.076 42.9262 109.076 40.5861C109.076 38.2229 110.804 36.4656 113.148 36.4656C115.493 36.4656 117.211 38.2183 117.211 40.5722C117.211 42.9262 115.493 44.6835 113.148 44.6835ZM133.18 32.6826C131.319 32.6826 129.661 33.3393 128.394 34.4677L127.708 33.1034H125.041V53.4842H129.071V47.2733C130.228 48.0734 131.632 48.5312 133.18 48.5312C137.676 48.5312 140.997 45.1321 140.997 40.5953C140.997 36.0539 137.676 32.6826 133.18 32.6826ZM132.848 44.702C130.504 44.702 128.781 42.9447 128.781 40.5953C128.781 38.246 130.504 36.4887 132.848 36.4887C135.193 36.4887 136.916 38.2414 136.916 40.5953C136.916 42.9493 135.193 44.702 132.848 44.702ZM157.583 48.0872L151.987 40.2716L157.044 33.1034H152.443L147.92 39.7675V33.1034H143.885V48.0872H147.92V40.9191L152.715 48.0872H157.583ZM173.244 40.5445C173.244 36.2251 170.098 32.6826 165.515 32.6826C161.089 32.6826 157.777 36.0817 157.777 40.5953C157.777 45.0859 161.112 48.5081 165.515 48.5081C168.979 48.5081 171.839 46.4316 172.922 43.162H168.684C168.067 44.2349 166.92 44.9009 165.515 44.9009C163.557 44.9009 162.222 43.7771 161.872 41.733H173.166C173.216 41.3353 173.244 40.9376 173.244 40.5445ZM165.515 36.1372C167.325 36.1372 168.638 37.1315 169.209 38.9628H161.978C162.443 37.187 163.719 36.1372 165.515 36.1372ZM188.016 33.1034H174.345V36.7384H179.204V48.0872H183.156V36.7384H188.016V33.1034Z" fill="#B9B9B9"/>
<path fill-rule="evenodd" clip-rule="evenodd" d="M123.513 52.387H25.278V50.6038H123.513V52.387Z" fill="#B9B9B9"/>
<path fill-rule="evenodd" clip-rule="evenodd" d="M188.3 52.387H130.542V50.6038H188.3V52.387Z" fill="#B9B9B9"/>
</svg>
