<svg width="213" height="80" viewBox="0 0 213 80" fill="none" xmlns="http://www.w3.org/2000/svg">
<path fill-rule="evenodd" clip-rule="evenodd" d="M114.174 20.8074C113.612 20.5067 113.013 20.3751 112.32 20.3939C111.759 20.3939 111.047 20.5255 110.729 20.6947C110.411 20.845 110.017 21.127 109.811 21.2962C109.624 21.4653 109.306 21.9352 109.1 22.3488C108.8 22.9315 108.726 23.3638 108.782 24.2472C108.838 25.0555 108.988 25.5818 109.343 26.1269C109.643 26.5968 110.148 27.0292 110.748 27.3111C111.478 27.6682 111.89 27.7434 112.713 27.687C113.406 27.6307 113.986 27.4615 114.492 27.1231C114.96 26.8224 115.39 26.3149 115.671 25.7134C116.027 24.9803 116.102 24.5668 116.046 23.7397C115.99 23.0442 115.821 22.4615 115.484 21.954C115.203 21.5217 114.66 21.0518 114.174 20.8074ZM56.0621 22.5367C54.8826 22.236 53.4598 22.0292 52.2242 21.9728C51.1383 21.9352 49.6594 21.9728 48.9479 22.0856C48.2365 22.1796 46.926 22.4803 46.0461 22.7435C45.1662 23.0067 43.8557 23.533 43.1443 23.8901C42.4329 24.2472 41.3283 24.9051 40.7105 25.3187C40.0927 25.7322 38.9881 26.672 38.258 27.4051C37.5278 28.1382 36.5917 29.2472 36.1799 29.8675C35.768 30.4878 35.1128 31.5968 34.757 32.311C34.4013 33.0253 33.8959 34.3035 33.6338 35.1305C33.3717 35.9576 33.0721 37.4801 32.9411 38.514C32.81 39.6418 32.7726 41.0327 32.8475 41.9914C32.9223 42.8748 33.1657 44.341 33.4091 45.2808C33.6338 46.2206 34.1205 47.6116 34.4762 48.3822C34.8319 49.1529 35.4497 50.2995 35.8429 50.9198C36.2548 51.5401 37.2657 52.7619 38.0895 53.6265C38.9132 54.4912 40.2612 55.6378 41.0849 56.2017C41.9087 56.7468 43.3502 57.5175 44.2676 57.8934C45.1849 58.2693 46.7575 58.758 47.731 58.946C49.1539 59.2468 50.0151 59.3032 52.037 59.228C53.8155 59.1716 55.0324 59.0212 56.1557 58.7393C57.0356 58.4949 58.421 58.0062 59.2448 57.6114C60.0685 57.2355 61.2854 56.54 61.9594 56.0889C62.6333 55.6378 63.8128 54.6228 64.5991 53.8521C65.3667 53.0626 66.3776 51.8784 66.827 51.2018C67.2763 50.5251 67.9128 49.3785 68.2498 48.6642C68.5868 47.9499 69.0922 46.5966 69.3731 45.6567C69.7662 44.3034 69.8785 43.4199 69.9534 41.3335C70.0283 39.1718 69.9722 38.3824 69.6726 36.9162C69.4667 35.9388 69.0735 34.5291 68.7927 33.8148C68.5119 33.1005 67.8941 31.8223 67.4073 31.0141C66.9393 30.2058 65.9096 28.8524 65.142 28.0254C64.3744 27.1983 63.195 26.1081 62.521 25.6006C61.847 25.0743 60.5365 24.2848 59.6192 23.8337C58.7018 23.3826 57.0918 22.7999 56.0621 22.5367ZM169.514 29.7735C171.199 29.7735 172.135 29.8675 173.259 30.1494C174.082 30.3562 175.299 30.7885 175.973 31.108C176.647 31.4276 177.696 32.0479 178.313 32.499C178.931 32.9501 179.755 33.6268 180.129 34.0403C180.504 34.4351 180.916 34.9802 181.009 35.2621C181.122 35.5629 181.215 36.0704 181.215 36.3899C181.215 36.7283 181.065 37.3486 180.878 37.7621C180.691 38.1756 180.242 38.7019 179.886 38.9275C179.437 39.2282 178.95 39.3598 178.22 39.3598C177.433 39.3598 177.059 39.2658 176.591 38.9463C176.273 38.7019 175.468 38.1004 174.812 37.6117C174.176 37.123 173.165 36.5403 172.603 36.3335C172.042 36.108 170.975 35.9012 170.263 35.8448C169.365 35.7696 168.578 35.8448 167.792 36.0516C167.137 36.2208 166.163 36.5779 165.639 36.8598C165.096 37.123 164.235 37.7433 163.729 38.2132C163.224 38.6831 162.587 39.4914 162.288 40.0177C161.988 40.5252 161.745 41.0139 161.745 41.0891C161.745 41.1831 164.272 41.2583 167.343 41.2771C172.622 41.3335 172.978 41.3523 173.465 41.7094C173.727 41.9162 174.138 42.3297 174.363 42.6117C174.663 43.0252 174.756 43.4199 174.756 44.341C174.756 45.262 174.663 45.6567 174.363 46.0703C174.138 46.3522 173.689 46.7657 173.333 46.9725C172.734 47.3296 172.304 47.3484 167.137 47.386C164.066 47.4236 161.558 47.48 161.558 47.5364C161.558 47.5928 161.782 48.0815 162.063 48.6078C162.325 49.1529 163.018 50.074 163.598 50.6567C164.235 51.2769 165.133 51.9348 165.864 52.292C166.538 52.6115 167.68 52.9687 168.391 53.1002C169.383 53.2694 170.001 53.2694 170.918 53.1002C171.592 52.9875 172.641 52.6491 173.259 52.3484C173.876 52.0664 174.981 51.3521 175.692 50.7506C176.628 49.9988 177.209 49.6604 177.752 49.5852C178.295 49.4913 178.744 49.5852 179.399 49.8672C179.942 50.1115 180.429 50.5063 180.654 50.8634C180.86 51.2018 181.084 51.7845 181.14 52.1416C181.215 52.4987 181.159 53.119 181.047 53.495C180.934 53.8897 180.616 54.4724 180.335 54.8107C180.036 55.1303 179.268 55.807 178.594 56.3145C177.92 56.8408 176.778 57.5363 176.067 57.8746C175.355 58.2317 173.989 58.7017 173.071 58.9272C171.649 59.2656 171.012 59.3032 169.046 59.228C167.212 59.1528 166.388 59.04 165.208 58.6453C164.385 58.3821 163.093 57.8182 162.363 57.4047C161.614 56.9912 160.359 56.0325 159.573 55.2807C158.787 54.5476 157.795 53.3822 157.345 52.7055C156.896 52.0288 156.316 50.9574 156.054 50.2995C155.791 49.6604 155.436 48.5702 155.267 47.8559C155.061 47.0665 154.968 45.8071 154.968 44.4349C154.968 42.9124 155.08 41.8598 155.342 40.8636C155.548 40.0929 155.922 38.9839 156.166 38.42C156.409 37.8561 156.971 36.8598 157.401 36.202C157.832 35.5629 158.656 34.5666 159.217 34.0027C159.779 33.4388 160.771 32.6118 161.427 32.1795C162.063 31.7471 163.055 31.1832 163.617 30.9389C164.179 30.6945 165.246 30.3374 165.957 30.1494C166.856 29.9051 167.96 29.7923 169.514 29.7735ZM95.1525 30.5629C94.4598 30.4126 91.558 30.3374 85.7918 30.3374C78.1347 30.3374 77.3297 30.375 76.6557 30.6757C76.2439 30.8637 75.7196 31.3148 75.495 31.672C75.1954 32.1231 75.0644 32.6118 75.0644 33.3449C75.0644 34.1155 75.158 34.5479 75.4763 35.0178C75.7197 35.3749 76.2064 35.8448 76.5621 36.0516C77.0114 36.2959 77.7229 36.4463 78.79 36.5215L80.3626 36.6343C80.1566 40.5628 79.9882 42.5929 79.8197 43.6831C79.6699 44.7733 79.4078 46.1642 79.2393 46.7845C79.0895 47.4048 78.6402 48.589 78.2658 49.4161C77.8165 50.3935 77.2735 51.2394 76.6932 51.8033C76.2064 52.3108 75.4575 52.8747 75.027 53.0626C74.5776 53.2694 73.5854 53.5138 72.8178 53.6077C71.9941 53.7017 71.1891 53.9273 70.8708 54.1341C70.59 54.322 70.1781 54.7355 69.9909 55.0551C69.7662 55.431 69.6539 55.9761 69.6352 56.6528C69.6352 57.3671 69.7475 57.8746 70.0096 58.2881C70.2155 58.6265 70.6648 59.0776 71.0018 59.2844C71.4699 59.5663 71.9379 59.6603 73.0987 59.6603C73.9598 59.6603 75.1955 59.5099 76.0005 59.3032C76.7681 59.1152 77.8352 58.7392 78.3407 58.4761C78.8649 58.2317 79.726 57.6678 80.269 57.2355C80.7932 56.822 81.6356 55.9385 82.1037 55.2807C82.5904 54.6416 83.3018 53.4386 83.695 52.6115C84.0882 51.7845 84.6311 50.3559 84.8932 49.4161C85.1553 48.4762 85.4923 47.0101 85.642 46.1266C85.7918 45.2432 85.9977 43.6455 86.1101 42.5553C86.2037 41.465 86.2973 39.6794 86.2973 38.5516V36.5403H93.037C93.037 54.2844 93.0557 55.3558 93.3553 56.2769C93.5799 56.9724 93.9356 57.5739 94.4786 58.1002C95.0777 58.7017 95.5644 58.9836 96.3694 59.2092C97.1745 59.4347 98.0544 59.4911 100.095 59.4535C102.454 59.3783 102.81 59.3407 103.278 58.9836C103.558 58.758 103.952 58.3821 104.139 58.1378C104.326 57.8934 104.532 57.2543 104.588 56.7468C104.663 55.9949 104.588 55.6378 104.232 54.9799C103.97 54.4912 103.54 54.0213 103.147 53.8145C102.641 53.5326 102.098 53.4574 100.769 53.4574H99.0279L98.9343 34.0027C97.9982 32.3298 97.4553 31.7095 96.9498 31.3524C96.5005 31.0329 95.6767 30.6757 95.1525 30.5629ZM109.137 30.3938C111.384 30.4314 112.002 30.5066 112.695 30.8261C113.163 31.0329 113.818 31.5028 114.174 31.8599C114.529 32.2171 114.997 32.8749 115.203 33.3449C115.578 34.1531 115.596 34.5103 115.69 53.4574H118.18C120.314 53.4574 120.726 53.5138 121.269 53.8333C121.587 54.0401 122.037 54.4912 122.243 54.8107C122.486 55.2243 122.617 55.7694 122.617 56.4648C122.617 57.2355 122.523 57.6678 122.205 58.1378C121.962 58.4949 121.475 58.9272 121.119 59.134C120.558 59.4347 120.015 59.4723 117.188 59.4723C114.829 59.4723 113.631 59.3971 112.938 59.1904C112.245 59.0024 111.702 58.6641 111.141 58.1002C110.635 57.6114 110.205 56.9536 110.017 56.3709C109.737 55.525 109.699 54.3972 109.699 36.6343L107.977 36.5215C106.966 36.4463 105.974 36.2772 105.637 36.0892C105.3 35.92 104.85 35.5629 104.644 35.2621C104.438 34.9802 104.232 34.4539 104.158 34.0967C104.083 33.7396 104.083 33.1193 104.158 32.7246C104.214 32.3486 104.476 31.7659 104.7 31.4464C104.944 31.108 105.431 30.7321 105.786 30.6005C106.254 30.3938 107.153 30.3374 109.137 30.3938ZM141.207 30.5441C140.552 30.4126 137.313 30.3374 131.847 30.3374C125.219 30.3562 123.328 30.4126 122.842 30.6005C122.505 30.7509 122.018 31.1456 121.774 31.484C121.531 31.8411 121.269 32.499 121.194 32.9689C121.082 33.6644 121.157 33.9839 121.512 34.7358C121.756 35.2433 122.205 35.8072 122.523 35.9952C122.879 36.2208 123.665 36.3899 124.714 36.4839L126.343 36.6343L126.455 55.619C127.185 57.1979 127.709 57.931 128.102 58.2881C128.477 58.6265 129.226 59.04 129.787 59.1904C130.555 59.4159 131.922 59.4723 136.377 59.4723C140.87 59.4723 142.218 59.4159 143.117 59.1716C143.735 59.0212 144.727 58.6077 145.345 58.2881C145.944 57.9498 146.88 57.2167 147.423 56.6528C148.003 56.0513 148.659 55.0739 149.033 54.3032C149.407 53.495 149.707 52.4423 149.838 51.5777C149.969 50.5439 149.969 49.8296 149.782 48.8522C149.669 48.1379 149.314 47.0289 149.014 46.4086C148.733 45.7883 148.097 44.8485 147.648 44.341L146.786 43.4011C147.629 41.3147 147.797 40.4876 147.854 39.3598C147.91 38.1756 147.835 37.4425 147.591 36.5403C147.404 35.8636 146.955 34.8486 146.58 34.2847C146.206 33.7208 145.476 32.8937 144.97 32.4426C144.465 31.9915 143.641 31.4276 143.117 31.1832C142.612 30.9577 141.732 30.6569 141.207 30.5441ZM64.5389 40.9943C64.5389 48.2611 58.6716 54.152 51.4339 54.152C44.1962 54.152 38.3288 48.2611 38.3288 40.9943C38.3288 33.7275 44.1962 27.8366 51.4339 27.8366C58.6716 27.8366 64.5389 33.7275 64.5389 40.9943ZM132.535 36.859H140.398L141.035 37.4605C141.391 37.7989 141.728 38.3252 141.802 38.6447C141.877 38.9455 141.896 39.453 141.821 39.7725C141.765 40.0733 141.409 40.6372 140.38 41.6522L132.535 41.7462V39.3026V36.859ZM132.498 47.6108L136.392 47.6859C138.545 47.7423 140.679 47.7987 141.147 47.8175C141.671 47.8551 142.233 48.0431 142.626 48.325C143.001 48.607 143.431 49.1521 143.637 49.6408C143.899 50.2611 143.955 50.6746 143.862 51.2385C143.768 51.7272 143.487 52.216 143.038 52.6671C142.664 53.043 142.027 53.4377 141.615 53.5693C141.166 53.6821 139.181 53.7761 132.535 53.7761L132.517 50.6934L132.498 47.6108Z" fill="black"/>
<path d="M159.077 21.9255C158.71 20.971 158.691 20.9527 157.938 20.971C157.513 20.9894 156.819 21.0995 156.394 21.228C155.969 21.3565 155.139 21.6869 154.56 21.9805C153.981 22.2558 153.016 22.9533 152.418 23.5223C151.743 24.1647 151.086 25.0641 150.642 25.9267C150.141 26.8812 149.87 27.7255 149.735 28.6799C149.62 29.5609 149.62 30.4603 149.735 31.1578C149.851 31.7635 150.083 32.6628 150.256 33.1584L150.604 34.0394C151.955 33.8375 152.823 33.6173 153.402 33.4337C153.981 33.2318 154.889 32.8096 155.41 32.4793C155.931 32.1489 156.741 31.4698 157.205 30.9742C157.668 30.4603 158.305 29.5609 158.614 28.9552C158.942 28.3495 159.289 27.3951 159.405 26.8445C159.521 26.2938 159.579 25.1742 159.521 24.3666C159.482 23.559 159.27 22.4577 159.077 21.9255Z" fill="black"/>
<path d="M56.9474 29.0392C56.5519 28.9071 55.8362 28.7938 55.3653 28.8127C54.8945 28.8127 54.1788 28.926 53.7644 29.077C53.3501 29.228 52.7097 29.6056 52.3518 29.9077C51.994 30.1909 51.5043 30.8139 51.2783 31.267C51.0334 31.7201 50.7886 32.4753 50.7321 32.9473C50.6568 33.4948 50.7133 34.1745 50.9016 34.8353C51.0711 35.4017 51.4855 36.2135 51.8433 36.6288C52.22 37.0819 52.898 37.5728 53.5007 37.8371C54.3294 38.1958 54.7438 38.2714 55.742 38.1958C56.42 38.1392 57.2111 37.9693 57.5313 37.8182C57.8515 37.6483 58.3788 37.233 58.7367 36.8932C59.0945 36.5344 59.5277 35.9114 59.716 35.4961C59.9421 35.0241 60.0739 34.2878 60.0739 33.5137C60.0739 32.7396 59.9421 32.0033 59.716 31.5313C59.5465 31.116 59.0003 30.4363 58.5295 30.021C58.0775 29.6056 57.3618 29.1525 56.9474 29.0392Z" fill="black"/>
</svg>
