<svg width="12" height="16" viewBox="0 0 12 16" fill="none" xmlns="http://www.w3.org/2000/svg">
<path id="Vector" d="M6 0.5C4.40925 0.501787 2.88416 1.1345 1.75933 2.25933C0.634501 3.38416 0.00178658 4.90925 0 6.5C0 8.94125 1.77225 10.9685 3.6495 13.1143C4.2435 13.7937 4.8585 14.4965 5.406 15.2075C5.47606 15.2984 5.56605 15.372 5.66903 15.4226C5.77201 15.4733 5.88524 15.4996 6 15.4996C6.11476 15.4996 6.22799 15.4733 6.33097 15.4226C6.43395 15.372 6.52394 15.2984 6.594 15.2075C7.1415 14.4965 7.7565 13.7937 8.3505 13.1143C10.2278 10.9685 12 8.94125 12 6.5C11.9982 4.90925 11.3655 3.38416 10.2407 2.25933C9.11584 1.1345 7.59075 0.501787 6 0.5ZM6 8.75C5.55499 8.75 5.11998 8.61804 4.74997 8.37081C4.37996 8.12357 4.09157 7.77217 3.92127 7.36104C3.75097 6.9499 3.70642 6.4975 3.79323 6.06105C3.88005 5.62459 4.09434 5.22368 4.40901 4.90901C4.72368 4.59434 5.12459 4.38005 5.56105 4.29323C5.99751 4.20642 6.4499 4.25097 6.86104 4.42127C7.27217 4.59157 7.62357 4.87996 7.87081 5.24997C8.11804 5.61998 8.25 6.05499 8.25 6.5C8.25 7.09674 8.01295 7.66903 7.59099 8.09099C7.16903 8.51295 6.59674 8.75 6 8.75Z" fill="#FF5F00"/>
</svg>
