<svg width="14" height="14" viewBox="0 0 14 14" fill="none" xmlns="http://www.w3.org/2000/svg">
<path id="Vector" d="M13.1224 14C5.65774 14.0105 -0.00786678 8.27748 8.19934e-06 0.877623C8.19934e-06 0.393749 0.392007 0 0.875006 0H3.185C3.61812 0 3.9865 0.318499 4.05037 0.747248C4.20271 1.77542 4.5018 2.77641 4.9385 3.71962L5.02862 3.91387C5.08916 4.04458 5.10218 4.19233 5.06544 4.33162C5.02871 4.47091 4.94451 4.59301 4.82737 4.67686C4.11162 5.18786 3.83862 6.21599 4.396 7.01748C5.09512 8.02373 5.97624 8.90573 6.98249 9.60485C7.78486 10.1614 8.81299 9.88835 9.32311 9.17348C9.40688 9.05599 9.52908 8.97148 9.66857 8.93457C9.80807 8.89766 9.95607 8.91067 10.087 8.97135L10.2804 9.0606C11.2236 9.4981 12.2246 9.79735 13.2527 9.9496C13.6815 10.0135 14 10.3819 14 10.8159V13.125C14 13.2399 13.9773 13.3538 13.9333 13.46C13.8893 13.5662 13.8247 13.6627 13.7434 13.744C13.662 13.8253 13.5655 13.8897 13.4592 13.9336C13.353 13.9775 13.2391 14.0001 13.1241 14H13.1224Z" fill="#FF5F00"/>
</svg>
