<svg width="44" height="44" viewBox="0 0 44 44" fill="none" xmlns="http://www.w3.org/2000/svg">
<g id="Group 29">
<circle id="Ellipse 6" cx="22" cy="22" r="22" fill="#FF5F00"/>
<rect id="Rectangle 199" width="44" height="44" rx="4" fill="#FF5F00"/>
<g id="Group">
<path id="Vector" d="M28.1224 29C20.6577 29.0105 14.9921 23.2775 15 15.8776C15 15.3937 15.392 15 15.875 15H18.185C18.6181 15 18.9865 15.3185 19.0504 15.7472C19.2027 16.7754 19.5018 17.7764 19.9385 18.7196L20.0286 18.9139C20.0892 19.0446 20.1022 19.1923 20.0654 19.3316C20.0287 19.4709 19.9445 19.593 19.8274 19.6769C19.1116 20.1879 18.8386 21.216 19.396 22.0175C20.0951 23.0237 20.9762 23.9057 21.9825 24.6049C22.7849 25.1614 23.813 24.8884 24.3231 24.1735C24.4069 24.056 24.5291 23.9715 24.6686 23.9346C24.8081 23.8977 24.9561 23.9107 25.087 23.9714L25.2804 24.0606C26.2236 24.4981 27.2246 24.7974 28.2527 24.9496C28.6815 25.0135 29 25.3819 29 25.8159V28.125C29 28.2399 28.9773 28.3538 28.9333 28.46C28.8893 28.5662 28.8247 28.6627 28.7434 28.744C28.662 28.8253 28.5655 28.8897 28.4592 28.9336C28.353 28.9775 28.2391 29.0001 28.1241 29H28.1224Z" fill="white"/>
</g>
</g>
</svg>
