<svg width="56" height="49" viewBox="0 0 56 49" fill="none" xmlns="http://www.w3.org/2000/svg">
<g id="Group 34530">
<g id="Group">
<path id="Vector" d="M2.3333 8.16699H0V40.8337H2.3333V8.16699Z" fill="#FF5F00"/>
</g>
<g id="Group_2">
<path id="Vector_2" d="M8.1667 32.667C3.6563 32.667 0 36.3233 0 40.8336C0 45.344 3.6563 49.0003 8.1667 49.0003V46.667C4.94506 46.667 2.33341 44.0553 2.33341 40.8337C2.33341 37.6121 4.94495 35.0003 8.1667 35.0003C11.3885 35.0003 14 37.6119 14 40.8336H16.3333C16.3333 36.3233 12.677 32.667 8.1667 32.667Z" fill="#FF5F00"/>
</g>
<g id="Group_3">
<path id="Vector_3" d="M54.8336 5.8335H19.8336V8.16679H53.6669V40.8335C53.663 44.0536 51.0536 46.663 47.8336 46.6668H8.16699V49.0002H47.8337C52.3416 48.9944 55.9946 45.3415 56.0004 40.8335V7.0002C56.0003 6.35587 55.4779 5.8335 54.8336 5.8335Z" fill="#FF5F00"/>
</g>
<g id="Group_4">
<path id="Vector_4" d="M8.1667 0C3.6563 0 0 3.6563 0 8.1667H2.3333C2.3333 4.94506 4.94495 2.33341 8.16659 2.33341C11.3882 2.33341 14 4.94495 14 8.1667V30.3334H16.3333V8.1667C16.3333 3.6563 12.677 0 8.1667 0Z" fill="#FF5F00"/>
</g>
<g id="Group_5">
<path id="Vector_5" d="M46.6671 11.667H23.3337C22.6894 11.667 22.167 12.1894 22.167 12.8337V22.167C22.167 22.8113 22.6894 23.3337 23.3337 23.3337H46.667C47.3113 23.3337 47.8337 22.8113 47.8337 22.167V12.8337C47.8337 12.1893 47.3114 11.667 46.6671 11.667ZM45.5004 21.0003H24.5004V14.0003H45.5004V21.0003Z" fill="#FF5F00"/>
</g>
<g id="Group 34529">
<g id="Group_6">
<path id="Vector_6" d="M24.1645 26.0083L22.5146 27.6582L31.6254 36.769L33.2753 35.1191L24.1645 26.0083Z" fill="#FF5F00"/>
</g>
<g id="Group_7">
<path id="Vector_7" d="M32.667 25.667H23.3337C22.6894 25.667 22.167 26.1894 22.167 26.8337V36.167C22.167 36.8113 22.6894 37.3337 23.3337 37.3337H32.667C33.3113 37.3337 33.8337 36.8113 33.8337 36.167V26.8337C33.8336 26.1893 33.3113 25.667 32.667 25.667ZM31.5003 35.0003H24.5003V28.0003H31.5003V35.0003Z" fill="#FF5F00"/>
</g>
</g>
<g id="Group_8">
<path id="Vector_8" d="M38.1577 26.0117L36.5078 27.6616L45.6186 36.7724L47.2685 35.1225L38.1577 26.0117Z" fill="#FF5F00"/>
</g>
<g id="Group_9">
<path id="Vector_9" d="M24.5003 39.667H22.167V42.0003H24.5003V39.667Z" fill="#FF5F00"/>
</g>
<g id="Group_10">
<path id="Vector_10" d="M29.1663 39.667H26.833V42.0003H29.1663V39.667Z" fill="#FF5F00"/>
</g>
<g id="Group 34528">
<g id="Group_11">
<path id="Vector_11" d="M46.667 25.667H37.3337C36.6894 25.667 36.167 26.1894 36.167 26.8337V36.167C36.167 36.8113 36.6894 37.3337 37.3337 37.3337H46.667C47.3113 37.3337 47.8337 36.8113 47.8337 36.167V26.8337C47.8336 26.1893 47.3113 25.667 46.667 25.667ZM45.5003 35.0003H38.5003V28.0003H45.5003V35.0003Z" fill="#FF5F00"/>
</g>
<g id="Group_12">
<path id="Vector_12" d="M47.8337 39.667H32.667V42.0003H47.8337V39.667Z" fill="#FF5F00"/>
</g>
</g>
</g>
</svg>
