<svg width="14" height="10" viewBox="0 0 14 10" fill="none" xmlns="http://www.w3.org/2000/svg">
<path id="Vector" fill-rule="evenodd" clip-rule="evenodd" d="M8.33631e-05 4.99986C8.33515e-05 5.13246 0.0527614 5.25964 0.14653 5.35341C0.240298 5.44718 0.367475 5.49986 0.500083 5.49986L12.2931 5.49986L9.14608 8.64586C9.0996 8.69234 9.06272 8.74753 9.03756 8.80827C9.0124 8.86901 8.99945 8.93411 8.99945 8.99986C8.99945 9.0656 9.0124 9.1307 9.03756 9.19144C9.06272 9.25218 9.0996 9.30737 9.14608 9.35386C9.19257 9.40034 9.24776 9.43722 9.3085 9.46238C9.36924 9.48754 9.43434 9.50049 9.50008 9.50049C9.56583 9.50049 9.63093 9.48754 9.69167 9.46238C9.75241 9.43722 9.8076 9.40034 9.85408 9.35386L13.8541 5.35386C13.9006 5.30741 13.9376 5.25224 13.9628 5.19149C13.988 5.13074 14.001 5.06562 14.001 4.99986C14.001 4.93409 13.988 4.86897 13.9628 4.80822C13.9376 4.74748 13.9006 4.6923 13.8541 4.64586L9.85408 0.645856C9.8076 0.599369 9.75241 0.562492 9.69167 0.537333C9.63093 0.512174 9.56583 0.499225 9.50008 0.499225C9.43434 0.499225 9.36924 0.512174 9.3085 0.537333C9.24776 0.562492 9.19257 0.599369 9.14608 0.645856C9.0996 0.692344 9.06272 0.747533 9.03756 0.808273C9.0124 0.869012 8.99945 0.934113 8.99945 0.999857C8.99945 1.0656 9.0124 1.1307 9.03756 1.19144C9.06272 1.25218 9.0996 1.30737 9.14608 1.35386L12.2931 4.49986L0.500083 4.49986C0.367475 4.49986 0.240298 4.55253 0.14653 4.6463C0.0527615 4.74007 8.33747e-05 4.86725 8.33631e-05 4.99986Z" fill="#FF7F33"/>
</svg>
