<svg width="54" height="62" viewBox="0 0 54 62" fill="none" xmlns="http://www.w3.org/2000/svg">
<g id="Group 34563">
<path id="Subtract" d="M14.9728 21.1564L15.356 20.0721L15.356 20.0721L14.9728 21.1564ZM22.1399 21.1564L21.7566 20.0721L21.7566 20.0721L22.1399 21.1564ZM12.9728 1.82862L12.3747 0.846396L12.9728 1.82862ZM8.95566 11.0175C8.95566 7.54249 10.8011 4.49749 13.571 2.81084L12.3747 0.846396C8.94807 2.93302 6.65566 6.707 6.65566 11.0175H8.95566ZM15.356 20.0721C11.6256 18.7536 8.95566 15.1959 8.95566 11.0175H6.65566C6.65566 16.2009 9.9689 20.6075 14.5895 22.2406L15.356 20.0721ZM18.5563 20.6181C17.4321 20.6181 16.3555 20.4254 15.356 20.0721L14.5895 22.2406C15.8318 22.6797 17.1674 22.9181 18.5563 22.9181V20.6181ZM21.7566 20.0721C20.7571 20.4254 19.6805 20.6181 18.5563 20.6181V22.9181C19.9452 22.9181 21.2809 22.6797 22.5231 22.2406L21.7566 20.0721ZM28.157 11.0175C28.157 15.1959 25.487 18.7536 21.7566 20.0721L22.5231 22.2406C27.1437 20.6075 30.457 16.2009 30.457 11.0175H28.157ZM23.5399 2.8098C26.3107 4.49623 28.157 7.54178 28.157 11.0175H30.457C30.457 6.70611 28.1636 2.93146 24.7358 0.845105L23.5399 2.8098ZM21.6405 2.64981V9.71434H23.9405V2.64981H21.6405ZM21.6405 9.71434C21.6405 11.4182 20.2593 12.7994 18.5554 12.7994V15.0994C21.5295 15.0994 23.9405 12.6885 23.9405 9.71434H21.6405ZM18.5554 12.7994C16.8516 12.7994 15.4703 11.4182 15.4703 9.71435H13.1703C13.1703 12.6885 15.5813 15.0994 18.5554 15.0994V12.7994ZM15.4703 9.71435V2.65087H13.1703V9.71435H15.4703ZM20.9896 21.1565V32.193H23.2896V21.1565H20.9896ZM16.1225 32.193V21.1563H13.8225V32.193H16.1225ZM24.7358 0.845105C23.2339 -0.0689815 21.6405 1.18133 21.6405 2.64981H23.9405C23.9405 2.69519 23.913 2.76128 23.8434 2.80474C23.8081 2.82679 23.7573 2.84577 23.6945 2.84718C23.6274 2.8487 23.5721 2.82939 23.5399 2.8098L24.7358 0.845105ZM13.571 2.81084C13.5388 2.83044 13.4835 2.84976 13.4164 2.84825C13.3536 2.84685 13.3028 2.82788 13.2675 2.80582C13.1979 2.76236 13.1703 2.69626 13.1703 2.65087H15.4703C15.4703 1.18227 13.8766 -0.0681276 12.3747 0.846396L13.571 2.81084Z" fill="#FF5F00"/>
<g id="Group 34536">
<path id="Vector 14" d="M37.5 11.9998L37.3657 23.2468" stroke="#FF5F00" stroke-width="2.3"/>
<path id="Rectangle 172" d="M34.5 2.16642C34.5 2.07438 34.5746 1.99976 34.6667 1.99976H40.3333C40.4254 1.99976 40.5 2.07438 40.5 2.16642V8.99976C40.5 10.6566 39.1569 11.9998 37.5 11.9998V11.9998C35.8431 11.9998 34.5 10.6566 34.5 8.99976V2.16642Z" stroke="#FF5F00" stroke-width="2.3"/>
</g>
<path id="Rectangle 173" d="M41.9692 34.7368L41.9692 27.7607C41.9692 25.2677 39.9483 23.2468 37.4553 23.2468V23.2468C34.9623 23.2468 32.9414 25.2677 32.9414 27.7607L32.9414 32.1835" stroke="#FF5F00" stroke-width="2.3"/>
<path id="Rectangle 174" d="M10 37.9998H3C2.44772 37.9998 2 38.4475 2 38.9998V46.9998C2 47.552 2.44772 47.9998 3 47.9998H9.33333" stroke="#FF5F00" stroke-width="2.3"/>
<path id="Rectangle 175" d="M8.31934 41.3025V41.3025C8.31934 37.6764 11.2589 34.7368 14.8851 34.7368H34.367C34.4859 34.7368 34.5823 34.8332 34.5823 34.9521V34.9521C34.5823 38.4594 31.7391 41.3025 28.2318 41.3025H21.4508" stroke="#FF5F00" stroke-width="2.3"/>
<path id="Rectangle 176" d="M8.78201 45.6697L8.78201 48.1931C8.78201 49.2977 9.67744 50.1931 10.782 50.1931L34.8709 50.1931C34.9151 50.1931 34.9583 50.1801 34.9951 50.1556L50.9983 39.4968C52.4153 38.5531 52.6799 36.5787 51.5613 35.2952V35.2952C50.6562 34.2567 49.1335 34.0236 47.9593 34.7439L34.6542 42.9053C34.5628 42.9614 34.4453 42.9505 34.3658 42.8787L31.9121 40.6633" stroke="#FF5F00" stroke-width="2.3"/>
<path id="Vector 15" d="M32.9414 28.1711H41.9693" stroke="#FF5F00" stroke-width="2.3"/>
<path id="Vector" d="M14.3333 40.9998H12V43.3331H14.3333V40.9998Z" fill="#FF5F00"/>
<path id="Vector_2" d="M14.3333 44.9998H12V47.3331H14.3333V44.9998Z" fill="#FF5F00"/>
<path id="Vector_3" d="M18.3333 44.9998H16V47.3331H18.3333V44.9998Z" fill="#FF5F00"/>
<path id="Rectangle 178" d="M22 30.9998V21.9998H15V30.9998" stroke="#FF5F00" stroke-width="2.3"/>
</g>
</svg>
