<svg width="56" height="56" viewBox="0 0 56 56" fill="none" xmlns="http://www.w3.org/2000/svg">
<g id="Group 34553">
<g id="Group">
<path id="Vector" d="M47.8332 43.1658H36.1666C36.0034 43.1658 35.842 43.2 35.6928 43.2663C35.1039 43.5279 34.8387 44.2173 35.1003 44.8062L39.2933 54.2399C39.7691 55.3093 40.8296 55.9986 42 55.9992C43.1704 55.9984 44.2308 55.3092 44.7067 54.2399L48.8997 44.8062C48.966 44.657 49.0003 44.4956 49.0003 44.3324C49 43.6879 48.4776 43.1657 47.8332 43.1658ZM42.5739 53.2924C42.514 53.4019 42.4239 53.4919 42.3144 53.5519C41.9974 53.7256 41.5996 53.6095 41.4259 53.2924L37.9621 45.4991H46.0378L42.5739 53.2924Z" fill="#FF5F00"/>
</g>
<g id="Group_2">
<path id="Vector_2" d="M45.5 48.9995H38.5V51.3328H45.5V48.9995Z" fill="#FF5F00"/>
</g>
<g id="Group_3">
<path id="Vector_3" d="M43.1658 33.8325H40.8325V44.3325H43.1658V33.8325Z" fill="#FF5F00"/>
</g>
<g id="Group_4">
<path id="Vector_4" d="M37.3333 33.8325H35V44.3325H37.3333V33.8325Z" fill="#FF5F00"/>
</g>
<g id="Group_5">
<path id="Vector_5" d="M43.1658 25.6655H40.8325V31.4985H43.1658V25.6655Z" fill="#FF5F00"/>
</g>
<g id="Group_6">
<path id="Vector_6" d="M37.3333 29.1655H35V31.4988H37.3333V29.1655Z" fill="#FF5F00"/>
</g>
<g id="Group_7">
<path id="Vector_7" d="M55.552 21.2477L28.7187 0.247653C28.2965 -0.0825509 27.7035 -0.0825509 27.2814 0.247653L0.448001 21.2477C0.165485 21.4686 0.00021875 21.8073 0 22.1659V26.8326C0 27.4769 0.522376 27.9993 1.16671 27.9993H6.9999V54.8327C6.9999 55.477 7.52228 55.9994 8.16661 55.9994H37.3334V53.6661H9.33331V26.8325C9.33331 26.1882 8.81094 25.6658 8.16661 25.6658H2.33319V22.734L27.9999 2.64745L53.6667 22.734V25.6658H47.8334C47.1891 25.6658 46.6667 26.1882 46.6667 26.8325V44.3325H49V27.9992H54.8333C55.4776 27.9992 56 27.4768 56 26.8325V22.1658C55.9998 21.8073 55.8345 21.4686 55.552 21.2477Z" fill="#FF5F00"/>
</g>
<g id="Group_8">
<path id="Vector_8" d="M25.6664 48.9992V39.0825C25.6664 35.5386 22.7936 32.6658 19.2497 32.6658C15.7059 32.6658 12.833 35.5386 12.833 39.0825V51.3325H15.1663V39.0825C15.1663 36.8273 16.9945 34.9992 19.2496 34.9992C21.5047 34.9992 23.3329 36.8274 23.3329 39.0825V50.1658C23.3329 50.8101 23.8553 51.3325 24.4996 51.3325H34.9996V48.9992H25.6664Z" fill="#FF5F00"/>
</g>
<g id="Group_9">
<path id="Vector_9" d="M22.1658 41.9995H19.8325V44.3328H22.1658V41.9995Z" fill="#FF5F00"/>
</g>
<g id="Group_10">
<path id="Vector_10" d="M29.1658 8.16553H26.8325V20.9985H29.1658V8.16553Z" fill="#FF5F00"/>
</g>
<g id="Group_11">
<path id="Vector_11" d="M22.1658 13.9995H19.8325V20.9995H22.1658V13.9995Z" fill="#FF5F00"/>
</g>
<g id="Group_12">
<path id="Vector_12" d="M45.054 20.0823L28.7207 7.24897C28.2975 6.91636 27.7019 6.91636 27.2787 7.24897L10.9454 20.0823C10.6642 20.3034 10.5 20.6413 10.5 20.9991C10.4999 21.6434 11.022 22.1659 11.6664 22.166H24.4997V19.8327H15.0404L27.9997 9.64877L40.959 19.8326H31.4997V22.1659H44.333C44.6907 22.1658 45.0287 22.0016 45.2498 21.7205C45.6482 21.2141 45.5606 20.4806 45.054 20.0823Z" fill="#FF5F00"/>
</g>
<g id="Group_13">
<path id="Vector_13" d="M36.1658 13.9995H33.8325V20.9995H36.1658V13.9995Z" fill="#FF5F00"/>
</g>
</g>
</svg>
