<svg width="56" height="56" viewBox="0 0 56 56" fill="none" xmlns="http://www.w3.org/2000/svg">
<g id="Group 34543">
<g id="Group">
<path id="Vector" d="M33.833 35.0015H22.167V37.3346H33.833V35.0015Z" fill="#FF5F00"/>
</g>
<g id="Group_2">
<path id="Vector_2" d="M38.4579 3.78834C31.53 -1.9877 21.2315 -1.05405 15.4553 5.87384C9.67929 12.8017 10.6129 23.1003 17.5408 28.8764C19.7204 30.6717 20.988 33.3438 20.9997 36.1675V40.8338C20.9997 41.4781 21.5221 42.0004 22.1664 42.0004H33.8321C34.4763 42.0004 34.9987 41.4781 34.9987 40.8338V36.1675C35.0138 33.3393 36.2855 30.6643 38.4692 28.8671C39.2215 28.2387 39.9158 27.5439 40.5435 26.7909C46.3195 19.863 45.3858 9.5645 38.4579 3.78834ZM36.9724 27.0776C34.2579 29.3175 32.6798 32.6482 32.6655 36.1675V39.6672H23.333V36.1675C23.3219 32.6515 21.7469 29.3227 19.0353 27.0846C18.3895 26.5462 17.7936 25.9507 17.2546 25.3053C12.299 19.3709 13.0925 10.543 19.0268 5.58741C24.9611 0.631938 33.7891 1.42539 38.7447 7.35968C43.7001 13.2941 42.9067 22.122 36.9724 27.0776Z" fill="#FF5F00"/>
</g>
<g id="Group_3">
<path id="Vector_3" d="M31.4994 30.335H24.5V32.6681H31.4994V30.335Z" fill="#FF5F00"/>
</g>
<g id="Group_4">
<path id="Vector_4" d="M35.3417 10.8423L31.352 14.832L28.648 13.0296C28.256 12.7681 27.745 12.7681 27.3531 13.0296L24.649 14.832L20.6593 10.8423L19.0098 12.4919L23.6761 17.1582C24.0694 17.5516 24.6855 17.6126 25.1482 17.304L28.0005 15.4024L30.8528 17.3063C31.0445 17.4341 31.2698 17.5022 31.5002 17.5022C31.8099 17.5016 32.1066 17.3778 32.3249 17.1581L36.9913 12.4917L35.3417 10.8423Z" fill="#FF5F00"/>
</g>
<g id="Group_5">
<path id="Vector_5" d="M29.1661 17.502H26.833V31.5008H29.1661V17.502Z" fill="#FF5F00"/>
</g>
<g id="Group_6">
<path id="Vector_6" d="M6.393 32.8101L5.27539 34.8586C13.4737 39.7969 20.1641 46.8848 24.6218 55.3541L26.7158 54.3111C22.076 45.3914 15.0373 37.9447 6.393 32.8101Z" fill="#FF5F00"/>
</g>
<g id="Group_7">
<path id="Vector_7" d="M54.9357 28.0017C54.3827 27.955 41.3008 26.8678 36.3195 35.5844L38.3447 36.7416C41.8281 30.6474 50.5774 30.2204 53.6466 30.2799C53.0237 49.5621 36.2658 52.9662 31.4992 53.5495V45.9843C33.5529 45.0758 34.9105 43.0778 34.9989 40.8339C34.9989 40.1897 34.4766 39.6673 33.8323 39.6673H22.1668C21.5226 39.6673 21.0002 40.1897 21.0002 40.8339C21.0869 43.0795 22.4448 45.0797 24.4999 45.989V53.5566C19.7345 52.9861 2.97322 49.6077 2.35256 30.2788C5.42181 30.2088 14.1629 30.6323 17.6545 36.7416L19.6796 35.5844C14.6984 26.8678 1.61883 27.9538 1.06358 28.0017C0.460643 28.0562 -0.000443552 28.5629 0.0019625 29.1683C0.0019625 54.4829 25.3551 55.9854 25.6116 55.9983C25.9305 56.0169 26.2426 55.9004 26.4714 55.6775C26.7023 55.4572 26.833 55.152 26.833 54.8329V45.1795C26.833 44.6641 26.495 44.2098 26.0013 44.0619C24.9234 43.7871 24.0358 43.0246 23.6017 42.0005H32.3977C31.9636 43.0246 31.0759 43.7871 29.9981 44.0619C29.5044 44.2097 29.1662 44.664 29.1664 45.1795V54.8329C29.1664 55.4771 29.6887 55.9995 30.333 55.9995H30.3878C30.6444 55.9855 55.9974 54.4829 55.9974 29.1684C55.9997 28.5629 55.5386 28.0562 54.9357 28.0017Z" fill="#FF5F00"/>
</g>
<g id="Group_8">
<path id="Vector_8" d="M49.606 32.8101C40.966 37.9463 33.9315 45.3929 29.2949 54.3111L31.383 55.354C35.8453 46.8899 42.5322 39.8036 50.7236 34.8585L49.606 32.8101Z" fill="#FF5F00"/>
</g>
<g id="Group_9">
<path id="Vector_9" d="M9.33505 22.1685H7.00195V24.5016H9.33505V22.1685Z" fill="#FF5F00"/>
</g>
<g id="Group_10">
<path id="Vector_10" d="M7.00205 17.502H4.66895V19.8351H7.00205V17.502Z" fill="#FF5F00"/>
</g>
<g id="Group_11">
<path id="Vector_11" d="M7.00205 12.8364H4.66895V15.1695H7.00205V12.8364Z" fill="#FF5F00"/>
</g>
<g id="Group_12">
<path id="Vector_12" d="M9.33505 8.16943H7.00195V10.5025H9.33505V8.16943Z" fill="#FF5F00"/>
</g>
<g id="Group_13">
<path id="Vector_13" d="M47.8312 22.1685H45.498V24.5016H47.8312V22.1685Z" fill="#FF5F00"/>
</g>
<g id="Group_14">
<path id="Vector_14" d="M50.1642 17.502H47.8311V19.8351H50.1642V17.502Z" fill="#FF5F00"/>
</g>
<g id="Group_15">
<path id="Vector_15" d="M50.1642 12.8364H47.8311V15.1695H50.1642V12.8364Z" fill="#FF5F00"/>
</g>
<g id="Group_16">
<path id="Vector_16" d="M47.8312 8.16943H45.498V10.5025H47.8312V8.16943Z" fill="#FF5F00"/>
</g>
</g>
</svg>
