<svg width="258" height="70" viewBox="0 0 258 70" fill="none" xmlns="http://www.w3.org/2000/svg">
<g id="Logo New">
<path id="Vector" d="M10.7436 50.4318V6.37604L0 5V52.2379L10.7436 50.4318Z" fill="#FF5F00"/>
<path id="Vector_2" d="M15.2207 5L22.3831 5.9201V51.0322L15.2207 52.2379V5Z" fill="#FF5F00"/>
<path id="Vector_3" d="M30.4395 5L34.0206 5.4584V51.6342L30.4395 52.2379V5Z" fill="#FF5F00"/>
<path id="Vector_4" d="M46.5555 5H45.6602V52.2379H46.5555V5Z" fill="black"/>
<g id="&#208;&#163;&#208;&#186;&#209;&#128;&#209;&#130;&#208;&#190;&#209;&#128;&#208;&#179;&#208;&#186;&#208;&#190;&#208;&#188;&#208;&#191;&#208;&#187;&#208;&#181;&#208;&#186;&#209;&#130;" filter="url(#filter0_d_1044_239)">
<path d="M69.1358 36.5556L71.1903 32L66 21H67.9464L72.0554 29.7778H72.1635L76.0562 21H78.0026L71.0822 36.5556H69.1358Z" fill="black"/>
<path d="M78.5466 36.5556V25H80.1686V30.4444L85.4671 25H87.5216L82.0069 30.6667L87.846 36.5556H85.7915L80.1686 30.8889V36.5556H78.5466Z" fill="black"/>
<path d="M88.8242 41V25H90.1218L90.3381 26.5556H90.4462C91.2536 25.3704 92.4791 24.7778 94.1227 24.7778C95.5644 24.7778 96.7322 25.3037 97.6261 26.3556C98.5344 27.4074 98.9886 28.8815 98.9886 30.7778C98.9886 32.6741 98.5344 34.1481 97.6261 35.2C96.7322 36.2519 95.5644 36.7778 94.1227 36.7778C92.58 36.7778 91.3905 36.2222 90.5543 35.1111H90.4462V41H88.8242ZM91.3761 34.0667C92.0105 34.837 92.8539 35.2222 93.9064 35.2222C94.9589 35.2222 95.7951 34.837 96.4151 34.0667C97.0494 33.2963 97.3666 32.2 97.3666 30.7778C97.3666 29.3556 97.0494 28.2593 96.4151 27.4889C95.7951 26.7185 94.9589 26.3333 93.9064 26.3333C92.8539 26.3333 92.0105 26.7185 91.3761 27.4889C90.7562 28.2593 90.4462 29.3556 90.4462 30.7778C90.4462 32.2 90.7562 33.2963 91.3761 34.0667Z" fill="black"/>
<path d="M103.323 36.5556V26.5556H99.5385V25H108.838V26.5556H104.945V36.5556H103.323Z" fill="black"/>
<path d="M118.341 35.2C117.39 36.2519 116.135 36.7778 114.578 36.7778C113.021 36.7778 111.767 36.2519 110.815 35.2C109.864 34.1481 109.388 32.6741 109.388 30.7778C109.388 28.8815 109.864 27.4074 110.815 26.3556C111.767 25.3037 113.021 24.7778 114.578 24.7778C116.135 24.7778 117.39 25.3037 118.341 26.3556C119.293 27.4074 119.768 28.8815 119.768 30.7778C119.768 32.6741 119.293 34.1481 118.341 35.2ZM111.983 34.0667C112.646 34.837 113.511 35.2222 114.578 35.2222C115.645 35.2222 116.503 34.837 117.152 34.0667C117.815 33.2815 118.146 32.1852 118.146 30.7778C118.146 29.3704 117.815 28.2815 117.152 27.5111C116.503 26.7259 115.645 26.3333 114.578 26.3333C113.511 26.3333 112.646 26.7259 111.983 27.5111C111.334 28.2815 111.01 29.3704 111.01 30.7778C111.01 32.1852 111.334 33.2815 111.983 34.0667Z" fill="black"/>
<path d="M121.938 41V25H123.235L123.452 26.5556H123.56C124.367 25.3704 125.593 24.7778 127.236 24.7778C128.678 24.7778 129.846 25.3037 130.74 26.3556C131.648 27.4074 132.102 28.8815 132.102 30.7778C132.102 32.6741 131.648 34.1481 130.74 35.2C129.846 36.2519 128.678 36.7778 127.236 36.7778C125.694 36.7778 124.504 36.2222 123.668 35.1111H123.56V41H121.938ZM124.49 34.0667C125.124 34.837 125.968 35.2222 127.02 35.2222C128.073 35.2222 128.909 34.837 129.529 34.0667C130.163 33.2963 130.48 32.2 130.48 30.7778C130.48 29.3556 130.163 28.2593 129.529 27.4889C128.909 26.7185 128.073 26.3333 127.02 26.3333C125.968 26.3333 125.124 26.7185 124.49 27.4889C123.87 28.2593 123.56 29.3556 123.56 30.7778C123.56 32.2 123.87 33.2963 124.49 34.0667Z" fill="black"/>
<path d="M134.264 36.5556V25H141.401V26.5556H135.886V36.5556H134.264Z" fill="black"/>
<path d="M143.021 36.5556V25H144.643V30.4444L149.941 25H151.996L146.481 30.6667L152.32 36.5556H150.266L144.643 30.8889V36.5556H143.021Z" fill="black"/>
<path d="M161.5 35.2C160.548 36.2519 159.294 36.7778 157.737 36.7778C156.18 36.7778 154.926 36.2519 153.974 35.2C153.022 34.1481 152.547 32.6741 152.547 30.7778C152.547 28.8815 153.022 27.4074 153.974 26.3556C154.926 25.3037 156.18 24.7778 157.737 24.7778C159.294 24.7778 160.548 25.3037 161.5 26.3556C162.452 27.4074 162.927 28.8815 162.927 30.7778C162.927 32.6741 162.452 34.1481 161.5 35.2ZM155.142 34.0667C155.805 34.837 156.67 35.2222 157.737 35.2222C158.804 35.2222 159.662 34.837 160.311 34.0667C160.974 33.2815 161.305 32.1852 161.305 30.7778C161.305 29.3704 160.974 28.2815 160.311 27.5111C159.662 26.7259 158.804 26.3333 157.737 26.3333C156.67 26.3333 155.805 26.7259 155.142 27.5111C154.493 28.2815 154.169 29.3704 154.169 30.7778C154.169 32.1852 154.493 33.2815 155.142 34.0667Z" fill="black"/>
<path d="M165.097 36.5556V25H167.476L171.044 34.2222H171.152L174.72 25H177.099V36.5556H175.477V27.4444H175.369L171.801 36.5556H170.395L166.827 27.4444H166.719V36.5556H165.097Z" fill="black"/>
<path d="M179.809 36.5556V25H188.784V36.5556H187.162V26.5556H181.431V36.5556H179.809Z" fill="black"/>
<path d="M190.183 36.6667V35H190.4C191.106 35 191.589 34.6222 191.848 33.8667C192.108 33.1111 192.238 31.7111 192.238 29.6667V25H200.131V36.5556H198.509V26.5556H193.86V29.6667C193.86 32.1852 193.607 33.9852 193.103 35.0667C192.613 36.1333 191.712 36.6667 190.4 36.6667H190.183Z" fill="black"/>
<path d="M207.485 36.7778C205.928 36.7778 204.674 36.2519 203.722 35.2C202.771 34.1481 202.295 32.6741 202.295 30.7778C202.295 28.8815 202.763 27.4074 203.701 26.3556C204.652 25.3037 205.878 24.7778 207.377 24.7778C208.199 24.7778 208.941 24.9481 209.605 25.2889C210.282 25.6148 210.823 26.0444 211.227 26.5778C211.63 27.1111 211.933 27.6815 212.135 28.2889C212.351 28.8963 212.459 29.5037 212.459 30.1111L212.351 31.2222H203.917C203.974 32.5111 204.328 33.5037 204.977 34.2C205.64 34.8815 206.476 35.2222 207.485 35.2222C208.783 35.2222 209.756 34.6667 210.405 33.5556H212.135C211.76 34.5926 211.162 35.3926 210.34 35.9556C209.532 36.5037 208.581 36.7778 207.485 36.7778ZM203.917 29.7778H210.837C210.736 28.6963 210.369 27.8519 209.734 27.2444C209.1 26.637 208.314 26.3333 207.377 26.3333C206.44 26.3333 205.654 26.637 205.02 27.2444C204.385 27.8519 204.018 28.6963 203.917 29.7778Z" fill="black"/>
<path d="M214.613 36.5556V25H216.235V30.4444L221.533 25H223.587L218.073 30.6667L223.912 36.5556H221.857L216.235 30.8889V36.5556H214.613Z" fill="black"/>
<path d="M227.485 36.5556V26.5556H223.701V25H233V26.5556H229.107V36.5556H227.485Z" fill="black"/>
</g>
</g>
<defs>
<filter id="filter0_d_1044_239" x="41" y="0" width="217" height="70" filterUnits="userSpaceOnUse" color-interpolation-filters="sRGB">
<feFlood flood-opacity="0" result="BackgroundImageFix"/>
<feColorMatrix in="SourceAlpha" type="matrix" values="0 0 0 0 0 0 0 0 0 0 0 0 0 0 0 0 0 0 127 0" result="hardAlpha"/>
<feOffset dy="4"/>
<feGaussianBlur stdDeviation="12.5"/>
<feComposite in2="hardAlpha" operator="out"/>
<feColorMatrix type="matrix" values="0 0 0 0 0 0 0 0 0 0 0 0 0 0 0 0 0 0 0.04 0"/>
<feBlend mode="normal" in2="BackgroundImageFix" result="effect1_dropShadow_1044_239"/>
<feBlend mode="normal" in="SourceGraphic" in2="effect1_dropShadow_1044_239" result="shape"/>
</filter>
</defs>
</svg>
